<svg width="20" height="20" viewBox="0 0 20 20" fill="none" xmlns="http://www.w3.org/2000/svg">
<g id="telegram">
<path id="Vector" d="M14.5749 7.09689C15.1883 6.50241 15.7972 5.11529 13.2415 6.79965C10.854 8.39212 8.45037 9.96168 6.03089 11.5081C5.66246 11.6696 5.26416 11.7572 4.85991 11.7657C4.45565 11.7742 4.0538 11.7034 3.67848 11.5576C2.14502 11.1118 0.354872 10.5173 0.354872 10.5173C0.354872 10.5173 -0.86745 9.77313 1.22494 8.98049C1.22494 8.98049 10.0712 5.46207 13.1393 4.2225C14.3149 3.7271 18.303 2.14182 18.303 2.14182C18.303 2.14182 20.1443 1.44718 19.9909 3.13262C19.9398 3.82618 19.5309 6.25579 19.122 8.88141C18.5075 12.598 17.843 16.6624 17.843 16.6624C17.843 16.6624 17.7407 17.8018 16.8718 18C15.9416 17.9847 15.0428 17.6712 14.316 17.1083C14.1116 16.9597 10.4813 14.7293 9.15115 13.6394C9.01585 13.5506 8.90592 13.43 8.83161 13.289C8.75729 13.1479 8.72099 12.9909 8.7261 12.8326C8.7312 12.6743 8.77753 12.5198 8.86078 12.3835C8.94404 12.2472 9.06151 12.1335 9.20226 12.053C11.0266 10.4354 12.8178 8.783 14.5749 7.09689Z" fill="#FF9900"/>
</g>
</svg>
