<svg width="331" height="56" viewBox="0 0 331 56" fill="none" xmlns="http://www.w3.org/2000/svg">
<path d="M67.6154 9.92618H59.5461V13.6318C59.616 14.2445 59.5476 14.8647 59.3457 15.4488C59.1438 16.033 58.8133 16.567 58.3774 17.0133C57.9427 17.4593 57.4133 17.8073 56.8263 18.0328C56.2393 18.2584 55.6088 18.3561 54.9791 18.3192H53.4951V26.0178H58.7173V38.3577C58.7173 44.0893 62.4555 47.62 68.5669 47.62C70.172 47.6956 71.774 47.4187 73.2548 46.8096V39.5051C72.4767 39.6844 71.681 39.7814 70.8816 39.7943C68.9237 39.7943 67.6173 39.157 67.6173 36.7848V26.0178H73.3737V18.3192H67.6173L67.6154 9.92618ZM90.5789 39.8532C89.6449 39.8534 88.7212 39.6628 87.8672 39.2936C87.0133 38.9243 86.2482 38.3847 85.6211 37.7094C84.9951 37.0325 84.5215 36.2353 84.2308 35.3689C83.9401 34.5026 83.8387 33.5864 83.9332 32.6795C83.9332 27.8172 87.1976 25.5592 90.5789 25.5592C94.0207 25.5592 97.2246 27.8172 97.2246 32.6795C97.2246 37.5418 94.0151 39.8624 90.5789 39.8624V39.8532ZM90.5789 17.4609C88.511 17.4016 86.4523 17.7539 84.5285 18.4961C82.6046 19.2383 80.8559 20.355 79.3888 21.778C77.9226 23.2025 76.7691 24.9034 75.9989 26.777C75.2286 28.6507 74.8577 30.6577 74.9087 32.6758C74.8569 34.6971 75.2268 36.7075 75.996 38.585C76.7652 40.4625 77.9176 42.1679 79.3832 43.5975C80.8487 45.0272 82.5969 46.1514 84.5215 46.9018C86.4461 47.6522 88.507 48.013 90.5789 47.9625C92.653 48.0179 94.7169 47.6598 96.6442 46.9102C98.5715 46.1607 100.322 45.0353 101.788 43.6031C103.254 42.1731 104.405 40.4666 105.173 38.5878C105.94 36.709 106.306 34.6974 106.249 32.6758C106.305 30.6564 105.938 28.6472 105.169 26.7713C104.401 24.8954 103.248 23.1925 101.78 21.767C100.313 20.341 98.5628 19.2225 96.6366 18.4801C94.7104 17.7377 92.649 17.3871 90.5789 17.4498V17.4609ZM118.71 47.0877V30.5264C118.668 29.8824 118.763 29.2368 118.989 28.6304C119.215 28.0239 119.568 27.4697 120.024 27.0026C120.481 26.5355 121.031 26.1657 121.642 25.9163C122.252 25.6669 122.908 25.5434 123.57 25.5536C124.225 25.5123 124.881 25.6118 125.492 25.8449C126.103 26.078 126.655 26.4391 127.108 26.9028C127.56 27.3665 127.903 27.9214 128.112 28.5284C128.321 29.1354 128.39 29.7798 128.316 30.4159V47.0877H137.216V30.4749C137.181 29.8293 137.283 29.1835 137.517 28.5785C137.75 27.9734 138.11 27.4222 138.573 26.9597C139.036 26.4972 139.593 26.1334 140.207 25.8914C140.822 25.6494 141.481 25.5344 142.144 25.5536C142.794 25.5188 143.445 25.6231 144.05 25.8593C144.656 26.0954 145.2 26.4578 145.647 26.921C146.094 27.3841 146.431 27.9369 146.636 28.5406C146.84 29.1443 146.907 29.7844 146.831 30.4159V47.0877H155.554V28.4489C155.554 20.6343 150.213 17.4498 144.636 17.4498C142.839 17.3402 141.044 17.7009 139.437 18.4945C137.831 19.2881 136.471 20.4859 135.498 21.964C134.641 20.4746 133.363 19.257 131.817 18.4565C130.27 17.6561 128.52 17.3066 126.775 17.4498C125.121 17.4259 123.485 17.7926 122.008 18.5187C120.53 19.2447 119.254 20.3086 118.289 21.6196V18.3192H109.685V47.0877H118.71ZM169.799 18.3192H160.774V47.0877H169.793L169.799 18.3192ZM160.002 9.53019C160.002 10.8871 160.55 12.1894 161.528 13.1548C162.505 14.1201 163.833 14.6707 165.224 14.6872C165.924 14.6928 166.617 14.5633 167.266 14.3064C167.914 14.0494 168.503 13.6699 169 13.1898C169.496 12.7107 169.891 12.1409 170.16 11.5129C170.43 10.8849 170.57 10.2111 170.573 9.53019C170.57 8.84926 170.43 8.17549 170.16 7.54751C169.891 6.91952 169.496 6.34966 169 5.87058C168.503 5.39047 167.914 5.01101 167.266 4.75403C166.617 4.49705 165.924 4.36763 165.224 4.37322C163.833 4.3897 162.505 4.94029 161.528 5.90563C160.55 6.87097 160.002 8.17326 160.002 9.53019Z" fill="white"/>
<path fill-rule="evenodd" clip-rule="evenodd" d="M17.8562 4.66315C9.79163 6.1232 3.06994 12.349 0.588113 20.657C0.135515 22.1722 -0.0247147 23.8048 0.00303073 26.6111C0.0484639 31.1375 1.02406 34.8017 3.06023 38.0926L4.29248 40.0837L11.1335 35.964L17.9748 31.8446L18.0677 40.2117L18.1607 48.5787H21.6226H25.0846V40.3189C25.0846 34.5563 25.1997 32.059 25.4654 32.059C25.6745 32.059 28.7414 33.8224 32.2807 35.9781C37.2537 39.0068 38.8411 39.8184 39.2698 39.5512C39.8445 39.1934 42.6641 33.9226 42.4009 33.6984C42.319 33.6288 37.6266 30.7681 31.9734 27.3415L21.6948 21.1114L14.7647 25.3552C10.9531 27.6891 7.63997 29.5987 7.40205 29.5987C7.07639 29.5987 7.00356 28.7498 7.10725 26.1717C7.22587 23.226 7.39997 22.4105 8.34713 20.3638C12.964 10.3881 25.764 8.6377 32.9976 16.9928C34.3876 18.5983 35.7253 21.5301 36.1824 23.9739C36.3763 25.0083 36.5722 25.8814 36.6187 25.9144C36.6652 25.9475 38.1856 26.8684 39.9978 27.9604L43.2925 29.9463L43.4007 27.0487C43.5488 23.0861 42.9974 20.4953 41.2116 16.7696C39.3554 12.8959 37.3137 10.4981 33.9042 8.1871C29.3869 5.12499 23.0231 3.7275 17.8562 4.66315Z" fill="white"/>
<path d="M206.47 49.4335C206.676 50.2574 206.779 51.2872 206.779 52.5231C206.779 53.7074 206.676 54.7373 206.47 55.6127H197.202C196.996 54.7373 196.893 53.7074 196.893 52.5231C196.893 51.2872 196.996 50.2574 197.202 49.4335H194.112C193.906 48.5581 193.803 47.5282 193.803 46.3439C193.803 45.108 193.906 44.0782 194.112 43.2543C193.906 42.3789 193.803 41.349 193.803 40.1647C193.803 38.9289 193.906 37.899 194.112 37.0751C193.906 36.1997 193.803 35.1699 193.803 33.9855C193.803 32.7497 193.906 31.7198 194.112 30.8959H187.933C187.727 30.0205 187.624 28.9907 187.624 27.8063C187.624 26.5705 187.727 25.5406 187.933 24.7167H194.112C193.906 23.8414 193.803 22.8115 193.803 21.6271C193.803 20.3913 193.906 19.3614 194.112 18.5376C193.906 17.6622 193.803 16.6323 193.803 15.448C193.803 14.2121 193.906 13.1823 194.112 12.3584C193.906 11.483 193.803 10.4531 193.803 9.26878C193.803 8.03294 193.906 7.00308 194.112 6.17919H197.202C196.996 5.3038 196.893 4.27394 196.893 3.08959C196.893 1.85376 196.996 0.823893 197.202 0H206.47C206.676 0.823893 206.779 1.85376 206.779 3.08959C206.779 4.27394 206.676 5.3038 206.47 6.17919H200.291C200.497 7.00308 200.6 8.03294 200.6 9.26878C200.6 10.4531 200.497 11.483 200.291 12.3584C200.497 13.1823 200.6 14.2121 200.6 15.448C200.6 16.6323 200.497 17.6622 200.291 18.5376C200.497 19.3614 200.6 20.3913 200.6 21.6271C200.6 22.8115 200.497 23.8414 200.291 24.7167H197.202C197.408 25.5406 197.511 26.5705 197.511 27.8063C197.511 28.9907 197.408 30.0205 197.202 30.8959H200.291C200.497 31.7198 200.6 32.7497 200.6 33.9855C200.6 35.1699 200.497 36.1997 200.291 37.0751C200.497 37.899 200.6 38.9289 200.6 40.1647C200.6 41.349 200.497 42.3789 200.291 43.2543C200.497 44.0782 200.6 45.108 200.6 46.3439C200.6 47.5282 200.497 48.5581 200.291 49.4335H206.47Z" fill="#13E22F"/>
<path d="M240.795 15.448C240.795 16.6323 240.692 17.6622 240.486 18.5376C240.692 19.3614 240.795 20.3913 240.795 21.6271C240.795 22.8115 240.692 23.8414 240.486 24.7167H237.396C237.602 25.5406 237.705 26.5705 237.705 27.8063C237.705 28.9907 237.602 30.0205 237.396 30.8959H221.948C222.154 31.7198 222.257 32.7497 222.257 33.9855C222.257 35.1699 222.154 36.1997 221.948 37.0751C222.154 37.899 222.257 38.9289 222.257 40.1647C222.257 41.349 222.154 42.3789 221.948 43.2543C222.154 44.0782 222.257 45.108 222.257 46.3439C222.257 47.5282 222.154 48.5581 221.948 49.4335H215.769C215.563 48.5581 215.46 47.5282 215.46 46.3439C215.46 45.108 215.563 44.0782 215.769 43.2543C215.563 42.3789 215.46 41.349 215.46 40.1647C215.46 38.9289 215.563 37.899 215.769 37.0751C215.563 36.1997 215.46 35.1699 215.46 33.9855C215.46 32.7497 215.563 31.7198 215.769 30.8959C215.563 30.0205 215.46 28.9907 215.46 27.8063C215.46 26.5705 215.563 25.5406 215.769 24.7167C215.563 23.8414 215.46 22.8115 215.46 21.6271C215.46 20.3913 215.563 19.3614 215.769 18.5376C215.563 17.6622 215.46 16.6323 215.46 15.448C215.46 14.2121 215.563 13.1823 215.769 12.3584C215.563 11.483 215.46 10.4531 215.46 9.26878C215.46 8.03294 215.563 7.00308 215.769 6.17919H237.396C237.602 7.00308 237.705 8.03294 237.705 9.26878C237.705 10.4531 237.602 11.483 237.396 12.3584H240.486C240.692 13.1823 240.795 14.2121 240.795 15.448ZM234.307 24.7167C234.101 23.8414 233.998 22.8115 233.998 21.6271C233.998 20.3913 234.101 19.3614 234.307 18.5376C234.101 17.6622 233.998 16.6323 233.998 15.448C233.998 14.2121 234.101 13.1823 234.307 12.3584H221.948C222.154 13.1823 222.257 14.2121 222.257 15.448C222.257 16.6323 222.154 17.6622 221.948 18.5376C222.154 19.3614 222.257 20.3913 222.257 21.6271C222.257 22.8115 222.154 23.8414 221.948 24.7167H234.307Z" fill="#13E22F"/>
<path d="M271.721 40.1647C271.721 41.349 271.618 42.3789 271.412 43.2543C271.618 44.0782 271.721 45.108 271.721 46.3439C271.721 47.5282 271.618 48.5581 271.412 49.4335H265.233C265.027 48.5581 264.924 47.5282 264.924 46.3439C264.924 45.108 265.027 44.0782 265.233 43.2543C265.027 42.3789 264.924 41.349 264.924 40.1647C264.924 38.9289 265.027 37.899 265.233 37.0751H252.875C253.081 37.899 253.184 38.9289 253.184 40.1647C253.184 41.349 253.081 42.3789 252.875 43.2543C253.081 44.0782 253.184 45.108 253.184 46.3439C253.184 47.5282 253.081 48.5581 252.875 49.4335H246.695C246.489 48.5581 246.386 47.5282 246.386 46.3439C246.386 45.108 246.489 44.0782 246.695 43.2543C246.489 42.3789 246.386 41.349 246.386 40.1647C246.386 38.9289 246.489 37.899 246.695 37.0751H249.013C248.807 36.1997 248.704 35.1699 248.704 33.9855C248.704 32.7497 248.807 31.7198 249.013 30.8959C248.807 30.0205 248.704 28.9907 248.704 27.8063C248.704 26.5705 248.807 25.5406 249.013 24.7167H250.557C250.351 23.8414 250.248 22.8115 250.248 21.6271C250.248 20.3913 250.351 19.3614 250.557 18.5376H252.875C252.669 17.6622 252.566 16.6323 252.566 15.448C252.566 14.2121 252.669 13.1823 252.875 12.3584H254.419C254.213 11.483 254.11 10.4531 254.11 9.26878C254.11 8.03294 254.213 7.00308 254.419 6.17919H263.688C263.894 7.00308 263.997 8.03294 263.997 9.26878C263.997 10.4531 263.894 11.483 263.688 12.3584H265.233C265.439 13.1823 265.542 14.2121 265.542 15.448C265.542 16.6323 265.439 17.6622 265.233 18.5376H267.55C267.756 19.3614 267.859 20.3913 267.859 21.6271C267.859 22.8115 267.756 23.8414 267.55 24.7167H269.095C269.301 25.5406 269.404 26.5705 269.404 27.8063C269.404 28.9907 269.301 30.0205 269.095 30.8959C269.301 31.7198 269.404 32.7497 269.404 33.9855C269.404 35.1699 269.301 36.1997 269.095 37.0751H271.412C271.618 37.899 271.721 38.9289 271.721 40.1647ZM262.916 30.8959C262.71 30.0205 262.607 28.9907 262.607 27.8063C262.607 26.5705 262.71 25.5406 262.916 24.7167H261.371C261.165 23.8414 261.062 22.8115 261.062 21.6271C261.062 20.3913 261.165 19.3614 261.371 18.5376H256.737C256.943 19.3614 257.046 20.3913 257.046 21.6271C257.046 22.8115 256.943 23.8414 256.737 24.7167H255.192C255.398 25.5406 255.501 26.5705 255.501 27.8063C255.501 28.9907 255.398 30.0205 255.192 30.8959H262.916Z" fill="#13E22F"/>
<path d="M302.647 9.26878C302.647 10.4531 302.544 11.483 302.338 12.3584C302.544 13.1823 302.647 14.2121 302.647 15.448C302.647 16.6323 302.544 17.6622 302.338 18.5376H299.249C299.455 19.3614 299.558 20.3913 299.558 21.6271C299.558 22.8115 299.455 23.8414 299.249 24.7167H296.159C296.365 25.5406 296.468 26.5705 296.468 27.8063C296.468 28.9907 296.365 30.0205 296.159 30.8959H293.069C293.275 31.7198 293.378 32.7497 293.378 33.9855C293.378 35.1699 293.275 36.1997 293.069 37.0751C293.275 37.899 293.378 38.9289 293.378 40.1647C293.378 41.349 293.275 42.3789 293.069 43.2543C293.275 44.0782 293.378 45.108 293.378 46.3439C293.378 47.5282 293.275 48.5581 293.069 49.4335H286.89C286.684 48.5581 286.581 47.5282 286.581 46.3439C286.581 45.108 286.684 44.0782 286.89 43.2543C286.684 42.3789 286.581 41.349 286.581 40.1647C286.581 38.9289 286.684 37.899 286.89 37.0751C286.684 36.1997 286.581 35.1699 286.581 33.9855C286.581 32.7497 286.684 31.7198 286.89 30.8959H283.801C283.595 30.0205 283.492 28.9907 283.492 27.8063C283.492 26.5705 283.595 25.5406 283.801 24.7167H280.711C280.505 23.8414 280.402 22.8115 280.402 21.6271C280.402 20.3913 280.505 19.3614 280.711 18.5376H277.621C277.416 17.6622 277.313 16.6323 277.313 15.448C277.313 14.2121 277.416 13.1823 277.621 12.3584C277.416 11.483 277.313 10.4531 277.313 9.26878C277.313 8.03294 277.416 7.00308 277.621 6.17919H283.801C284.007 7.00308 284.11 8.03294 284.11 9.26878C284.11 10.4531 284.007 11.483 283.801 12.3584C284.007 13.1823 284.11 14.2121 284.11 15.448C284.11 16.6323 284.007 17.6622 283.801 18.5376H286.89C287.096 19.3614 287.199 20.3913 287.199 21.6271C287.199 22.8115 287.096 23.8414 286.89 24.7167H293.069C292.863 23.8414 292.76 22.8115 292.76 21.6271C292.76 20.3913 292.863 19.3614 293.069 18.5376H296.159C295.953 17.6622 295.85 16.6323 295.85 15.448C295.85 14.2121 295.953 13.1823 296.159 12.3584C295.953 11.483 295.85 10.4531 295.85 9.26878C295.85 8.03294 295.953 7.00308 296.159 6.17919H302.338C302.544 7.00308 302.647 8.03294 302.647 9.26878Z" fill="#13E22F"/>
<path d="M330.484 27.8063C330.484 28.9907 330.381 30.0205 330.175 30.8959H323.996C324.202 31.7198 324.305 32.7497 324.305 33.9855C324.305 35.1699 324.202 36.1997 323.996 37.0751C324.202 37.899 324.305 38.9289 324.305 40.1647C324.305 41.349 324.202 42.3789 323.996 43.2543C324.202 44.0782 324.305 45.108 324.305 46.3439C324.305 47.5282 324.202 48.5581 323.996 49.4335H320.906C321.112 50.2574 321.215 51.2872 321.215 52.5231C321.215 53.7074 321.112 54.7373 320.906 55.6127H311.637C311.431 54.7373 311.328 53.7074 311.328 52.5231C311.328 51.2872 311.431 50.2574 311.637 49.4335H317.816C317.61 48.5581 317.507 47.5282 317.507 46.3439C317.507 45.108 317.61 44.0782 317.816 43.2543C317.61 42.3789 317.507 41.349 317.507 40.1647C317.507 38.9289 317.61 37.899 317.816 37.0751C317.61 36.1997 317.507 35.1699 317.507 33.9855C317.507 32.7497 317.61 31.7198 317.816 30.8959H320.906C320.7 30.0205 320.597 28.9907 320.597 27.8063C320.597 26.5705 320.7 25.5406 320.906 24.7167H317.816C317.61 23.8414 317.507 22.8115 317.507 21.6271C317.507 20.3913 317.61 19.3614 317.816 18.5376C317.61 17.6622 317.507 16.6323 317.507 15.448C317.507 14.2121 317.61 13.1823 317.816 12.3584C317.61 11.483 317.507 10.4531 317.507 9.26878C317.507 8.03294 317.61 7.00308 317.816 6.17919H311.637C311.431 5.3038 311.328 4.27394 311.328 3.08959C311.328 1.85376 311.431 0.823893 311.637 0H320.906C321.112 0.823893 321.215 1.85376 321.215 3.08959C321.215 4.27394 321.112 5.3038 320.906 6.17919H323.996C324.202 7.00308 324.305 8.03294 324.305 9.26878C324.305 10.4531 324.202 11.483 323.996 12.3584C324.202 13.1823 324.305 14.2121 324.305 15.448C324.305 16.6323 324.202 17.6622 323.996 18.5376C324.202 19.3614 324.305 20.3913 324.305 21.6271C324.305 22.8115 324.202 23.8414 323.996 24.7167H330.175C330.381 25.5406 330.484 26.5705 330.484 27.8063Z" fill="#13E22F"/>
<path d="M206.47 49.4335C206.676 50.2574 206.779 51.2872 206.779 52.5231C206.779 53.7074 206.676 54.7373 206.47 55.6127H197.202C196.996 54.7373 196.893 53.7074 196.893 52.5231C196.893 51.2872 196.996 50.2574 197.202 49.4335H194.112C193.906 48.5581 193.803 47.5282 193.803 46.3439C193.803 45.108 193.906 44.0782 194.112 43.2543C193.906 42.3789 193.803 41.349 193.803 40.1647C193.803 38.9289 193.906 37.899 194.112 37.0751C193.906 36.1997 193.803 35.1699 193.803 33.9855C193.803 32.7497 193.906 31.7198 194.112 30.8959H187.933C187.727 30.0205 187.624 28.9907 187.624 27.8063C187.624 26.5705 187.727 25.5406 187.933 24.7167H194.112C193.906 23.8414 193.803 22.8115 193.803 21.6271C193.803 20.3913 193.906 19.3614 194.112 18.5376C193.906 17.6622 193.803 16.6323 193.803 15.448C193.803 14.2121 193.906 13.1823 194.112 12.3584C193.906 11.483 193.803 10.4531 193.803 9.26878C193.803 8.03294 193.906 7.00308 194.112 6.17919H197.202C196.996 5.3038 196.893 4.27394 196.893 3.08959C196.893 1.85376 196.996 0.823893 197.202 0H206.47C206.676 0.823893 206.779 1.85376 206.779 3.08959C206.779 4.27394 206.676 5.3038 206.47 6.17919H200.291C200.497 7.00308 200.6 8.03294 200.6 9.26878C200.6 10.4531 200.497 11.483 200.291 12.3584C200.497 13.1823 200.6 14.2121 200.6 15.448C200.6 16.6323 200.497 17.6622 200.291 18.5376C200.497 19.3614 200.6 20.3913 200.6 21.6271C200.6 22.8115 200.497 23.8414 200.291 24.7167H197.202C197.408 25.5406 197.511 26.5705 197.511 27.8063C197.511 28.9907 197.408 30.0205 197.202 30.8959H200.291C200.497 31.7198 200.6 32.7497 200.6 33.9855C200.6 35.1699 200.497 36.1997 200.291 37.0751C200.497 37.899 200.6 38.9289 200.6 40.1647C200.6 41.349 200.497 42.3789 200.291 43.2543C200.497 44.0782 200.6 45.108 200.6 46.3439C200.6 47.5282 200.497 48.5581 200.291 49.4335H206.47Z" stroke="black"/>
<path d="M240.795 15.448C240.795 16.6323 240.692 17.6622 240.486 18.5376C240.692 19.3614 240.795 20.3913 240.795 21.6271C240.795 22.8115 240.692 23.8414 240.486 24.7167H237.396C237.602 25.5406 237.705 26.5705 237.705 27.8063C237.705 28.9907 237.602 30.0205 237.396 30.8959H221.948C222.154 31.7198 222.257 32.7497 222.257 33.9855C222.257 35.1699 222.154 36.1997 221.948 37.0751C222.154 37.899 222.257 38.9289 222.257 40.1647C222.257 41.349 222.154 42.3789 221.948 43.2543C222.154 44.0782 222.257 45.108 222.257 46.3439C222.257 47.5282 222.154 48.5581 221.948 49.4335H215.769C215.563 48.5581 215.46 47.5282 215.46 46.3439C215.46 45.108 215.563 44.0782 215.769 43.2543C215.563 42.3789 215.46 41.349 215.46 40.1647C215.46 38.9289 215.563 37.899 215.769 37.0751C215.563 36.1997 215.46 35.1699 215.46 33.9855C215.46 32.7497 215.563 31.7198 215.769 30.8959C215.563 30.0205 215.46 28.9907 215.46 27.8063C215.46 26.5705 215.563 25.5406 215.769 24.7167C215.563 23.8414 215.46 22.8115 215.46 21.6271C215.46 20.3913 215.563 19.3614 215.769 18.5376C215.563 17.6622 215.46 16.6323 215.46 15.448C215.46 14.2121 215.563 13.1823 215.769 12.3584C215.563 11.483 215.46 10.4531 215.46 9.26878C215.46 8.03294 215.563 7.00308 215.769 6.17919H237.396C237.602 7.00308 237.705 8.03294 237.705 9.26878C237.705 10.4531 237.602 11.483 237.396 12.3584H240.486C240.692 13.1823 240.795 14.2121 240.795 15.448ZM234.307 24.7167C234.101 23.8414 233.998 22.8115 233.998 21.6271C233.998 20.3913 234.101 19.3614 234.307 18.5376C234.101 17.6622 233.998 16.6323 233.998 15.448C233.998 14.2121 234.101 13.1823 234.307 12.3584H221.948C222.154 13.1823 222.257 14.2121 222.257 15.448C222.257 16.6323 222.154 17.6622 221.948 18.5376C222.154 19.3614 222.257 20.3913 222.257 21.6271C222.257 22.8115 222.154 23.8414 221.948 24.7167H234.307Z" stroke="black"/>
<path d="M271.721 40.1647C271.721 41.349 271.618 42.3789 271.412 43.2543C271.618 44.0782 271.721 45.108 271.721 46.3439C271.721 47.5282 271.618 48.5581 271.412 49.4335H265.233C265.027 48.5581 264.924 47.5282 264.924 46.3439C264.924 45.108 265.027 44.0782 265.233 43.2543C265.027 42.3789 264.924 41.349 264.924 40.1647C264.924 38.9289 265.027 37.899 265.233 37.0751H252.875C253.081 37.899 253.184 38.9289 253.184 40.1647C253.184 41.349 253.081 42.3789 252.875 43.2543C253.081 44.0782 253.184 45.108 253.184 46.3439C253.184 47.5282 253.081 48.5581 252.875 49.4335H246.695C246.489 48.5581 246.386 47.5282 246.386 46.3439C246.386 45.108 246.489 44.0782 246.695 43.2543C246.489 42.3789 246.386 41.349 246.386 40.1647C246.386 38.9289 246.489 37.899 246.695 37.0751H249.013C248.807 36.1997 248.704 35.1699 248.704 33.9855C248.704 32.7497 248.807 31.7198 249.013 30.8959C248.807 30.0205 248.704 28.9907 248.704 27.8063C248.704 26.5705 248.807 25.5406 249.013 24.7167H250.557C250.351 23.8414 250.248 22.8115 250.248 21.6271C250.248 20.3913 250.351 19.3614 250.557 18.5376H252.875C252.669 17.6622 252.566 16.6323 252.566 15.448C252.566 14.2121 252.669 13.1823 252.875 12.3584H254.419C254.213 11.483 254.11 10.4531 254.11 9.26878C254.11 8.03294 254.213 7.00308 254.419 6.17919H263.688C263.894 7.00308 263.997 8.03294 263.997 9.26878C263.997 10.4531 263.894 11.483 263.688 12.3584H265.233C265.439 13.1823 265.542 14.2121 265.542 15.448C265.542 16.6323 265.439 17.6622 265.233 18.5376H267.55C267.756 19.3614 267.859 20.3913 267.859 21.6271C267.859 22.8115 267.756 23.8414 267.55 24.7167H269.095C269.301 25.5406 269.404 26.5705 269.404 27.8063C269.404 28.9907 269.301 30.0205 269.095 30.8959C269.301 31.7198 269.404 32.7497 269.404 33.9855C269.404 35.1699 269.301 36.1997 269.095 37.0751H271.412C271.618 37.899 271.721 38.9289 271.721 40.1647ZM262.916 30.8959C262.71 30.0205 262.607 28.9907 262.607 27.8063C262.607 26.5705 262.71 25.5406 262.916 24.7167H261.371C261.165 23.8414 261.062 22.8115 261.062 21.6271C261.062 20.3913 261.165 19.3614 261.371 18.5376H256.737C256.943 19.3614 257.046 20.3913 257.046 21.6271C257.046 22.8115 256.943 23.8414 256.737 24.7167H255.192C255.398 25.5406 255.501 26.5705 255.501 27.8063C255.501 28.9907 255.398 30.0205 255.192 30.8959H262.916Z" stroke="black"/>
<path d="M302.647 9.26878C302.647 10.4531 302.544 11.483 302.338 12.3584C302.544 13.1823 302.647 14.2121 302.647 15.448C302.647 16.6323 302.544 17.6622 302.338 18.5376H299.249C299.455 19.3614 299.558 20.3913 299.558 21.6271C299.558 22.8115 299.455 23.8414 299.249 24.7167H296.159C296.365 25.5406 296.468 26.5705 296.468 27.8063C296.468 28.9907 296.365 30.0205 296.159 30.8959H293.069C293.275 31.7198 293.378 32.7497 293.378 33.9855C293.378 35.1699 293.275 36.1997 293.069 37.0751C293.275 37.899 293.378 38.9289 293.378 40.1647C293.378 41.349 293.275 42.3789 293.069 43.2543C293.275 44.0782 293.378 45.108 293.378 46.3439C293.378 47.5282 293.275 48.5581 293.069 49.4335H286.89C286.684 48.5581 286.581 47.5282 286.581 46.3439C286.581 45.108 286.684 44.0782 286.89 43.2543C286.684 42.3789 286.581 41.349 286.581 40.1647C286.581 38.9289 286.684 37.899 286.89 37.0751C286.684 36.1997 286.581 35.1699 286.581 33.9855C286.581 32.7497 286.684 31.7198 286.89 30.8959H283.801C283.595 30.0205 283.492 28.9907 283.492 27.8063C283.492 26.5705 283.595 25.5406 283.801 24.7167H280.711C280.505 23.8414 280.402 22.8115 280.402 21.6271C280.402 20.3913 280.505 19.3614 280.711 18.5376H277.621C277.416 17.6622 277.313 16.6323 277.313 15.448C277.313 14.2121 277.416 13.1823 277.621 12.3584C277.416 11.483 277.313 10.4531 277.313 9.26878C277.313 8.03294 277.416 7.00308 277.621 6.17919H283.801C284.007 7.00308 284.11 8.03294 284.11 9.26878C284.11 10.4531 284.007 11.483 283.801 12.3584C284.007 13.1823 284.11 14.2121 284.11 15.448C284.11 16.6323 284.007 17.6622 283.801 18.5376H286.89C287.096 19.3614 287.199 20.3913 287.199 21.6271C287.199 22.8115 287.096 23.8414 286.89 24.7167H293.069C292.863 23.8414 292.76 22.8115 292.76 21.6271C292.76 20.3913 292.863 19.3614 293.069 18.5376H296.159C295.953 17.6622 295.85 16.6323 295.85 15.448C295.85 14.2121 295.953 13.1823 296.159 12.3584C295.953 11.483 295.85 10.4531 295.85 9.26878C295.85 8.03294 295.953 7.00308 296.159 6.17919H302.338C302.544 7.00308 302.647 8.03294 302.647 9.26878Z" stroke="black"/>
<path d="M330.484 27.8063C330.484 28.9907 330.381 30.0205 330.175 30.8959H323.996C324.202 31.7198 324.305 32.7497 324.305 33.9855C324.305 35.1699 324.202 36.1997 323.996 37.0751C324.202 37.899 324.305 38.9289 324.305 40.1647C324.305 41.349 324.202 42.3789 323.996 43.2543C324.202 44.0782 324.305 45.108 324.305 46.3439C324.305 47.5282 324.202 48.5581 323.996 49.4335H320.906C321.112 50.2574 321.215 51.2872 321.215 52.5231C321.215 53.7074 321.112 54.7373 320.906 55.6127H311.637C311.431 54.7373 311.328 53.7074 311.328 52.5231C311.328 51.2872 311.431 50.2574 311.637 49.4335H317.816C317.61 48.5581 317.507 47.5282 317.507 46.3439C317.507 45.108 317.61 44.0782 317.816 43.2543C317.61 42.3789 317.507 41.349 317.507 40.1647C317.507 38.9289 317.61 37.899 317.816 37.0751C317.61 36.1997 317.507 35.1699 317.507 33.9855C317.507 32.7497 317.61 31.7198 317.816 30.8959H320.906C320.7 30.0205 320.597 28.9907 320.597 27.8063C320.597 26.5705 320.7 25.5406 320.906 24.7167H317.816C317.61 23.8414 317.507 22.8115 317.507 21.6271C317.507 20.3913 317.61 19.3614 317.816 18.5376C317.61 17.6622 317.507 16.6323 317.507 15.448C317.507 14.2121 317.61 13.1823 317.816 12.3584C317.61 11.483 317.507 10.4531 317.507 9.26878C317.507 8.03294 317.61 7.00308 317.816 6.17919H311.637C311.431 5.3038 311.328 4.27394 311.328 3.08959C311.328 1.85376 311.431 0.823893 311.637 0H320.906C321.112 0.823893 321.215 1.85376 321.215 3.08959C321.215 4.27394 321.112 5.3038 320.906 6.17919H323.996C324.202 7.00308 324.305 8.03294 324.305 9.26878C324.305 10.4531 324.202 11.483 323.996 12.3584C324.202 13.1823 324.305 14.2121 324.305 15.448C324.305 16.6323 324.202 17.6622 323.996 18.5376C324.202 19.3614 324.305 20.3913 324.305 21.6271C324.305 22.8115 324.202 23.8414 323.996 24.7167H330.175C330.381 25.5406 330.484 26.5705 330.484 27.8063Z" stroke="black"/>
</svg>
