<svg width="40" height="40" viewBox="0 0 40 40" fill="none" xmlns="http://www.w3.org/2000/svg">
<rect width="40" height="40" fill="#131313"/>
<path d="M10.6507 10.6507H19.7603C22.3034 10.6507 24.7424 11.6358 26.5407 13.3891C28.339 15.1424 29.3493 17.5204 29.3493 20C29.3493 22.4796 28.339 24.8576 26.5407 26.6109C24.7424 28.3643 22.3034 29.3493 19.7603 29.3493V24.5562C20.9996 24.5562 22.1882 24.0761 23.0646 23.2217C23.9409 22.3672 24.4332 21.2084 24.4332 20C24.4332 18.7917 23.9409 17.6328 23.0646 16.7783C22.1882 15.9239 20.9996 15.4439 19.7603 15.4439V15.4452H14.9658V19.7603H10.6507V10.6507Z" fill="white"/>
<path d="M14.9658 19.7603L19.7603 19.7603V24.5548H14.9658L14.9658 19.7603Z" fill="white"/>
</svg>
