<svg width="335" height="127" viewBox="0 0 335 127" fill="none" xmlns="http://www.w3.org/2000/svg">
<rect width="335" height="127" fill="white"/>
<path d="M135.149 16.3061H146.543C149.724 16.3061 152.775 17.5381 155.024 19.7312C157.273 21.9242 158.537 24.8986 158.537 28C158.537 31.1014 157.273 34.0758 155.024 36.2688C152.775 38.4618 149.724 39.6939 146.543 39.6939V33.6987C148.093 33.6987 149.58 33.0983 150.676 32.0296C151.772 30.9609 152.388 29.5114 152.388 28C152.388 26.4886 151.772 25.0391 150.676 23.9704C149.58 22.9017 148.093 22.3013 146.543 22.3013V22.303H140.546V27.7001H135.149V16.3061Z" fill="black"/>
<path d="M140.546 27.7001L146.543 27.7001V33.697H140.546L140.546 27.7001Z" fill="black"/>
<path d="M163.476 33.8469V22.8431H172.34C172.727 22.8431 173.083 22.9399 173.41 23.1334C173.736 23.327 173.995 23.5868 174.189 23.9129C174.383 24.2287 174.479 24.5802 174.479 24.9674V31.7225C174.479 32.1097 174.383 32.4663 174.189 32.7924C173.995 33.1082 173.736 33.3629 173.41 33.5565C173.083 33.7501 172.727 33.8469 172.34 33.8469H163.476ZM165.661 31.8142H172.248C172.299 31.8142 172.345 31.799 172.386 31.7684C172.426 31.7276 172.447 31.6818 172.447 31.6308V25.0591C172.447 25.0082 172.426 24.9674 172.386 24.9368C172.345 24.8961 172.299 24.8757 172.248 24.8757H165.661C165.61 24.8757 165.564 24.8961 165.523 24.9368C165.493 24.9674 165.478 25.0082 165.478 25.0591V31.6308C165.478 31.6818 165.493 31.7276 165.523 31.7684C165.564 31.799 165.61 31.8142 165.661 31.8142Z" fill="black"/>
<path d="M178.285 33.8469C177.897 33.8469 177.541 33.7501 177.215 33.5565C176.899 33.3629 176.644 33.1082 176.451 32.7924C176.257 32.4663 176.16 32.1097 176.16 31.7225V24.9674C176.16 24.5802 176.257 24.2287 176.451 23.9129C176.644 23.5868 176.899 23.327 177.215 23.1334C177.541 22.9399 177.897 22.8431 178.285 22.8431H185.04C185.427 22.8431 185.778 22.9399 186.094 23.1334C186.42 23.327 186.68 23.5868 186.874 23.9129C187.067 24.2287 187.164 24.5802 187.164 24.9674V31.7225C187.164 32.1097 187.067 32.4663 186.874 32.7924C186.68 33.1082 186.42 33.3629 186.094 33.5565C185.778 33.7501 185.427 33.8469 185.04 33.8469H178.285ZM178.361 31.8142H184.933C184.984 31.8142 185.03 31.799 185.07 31.7684C185.111 31.7276 185.131 31.6818 185.131 31.6308V25.0591C185.131 25.0082 185.111 24.9674 185.07 24.9368C185.03 24.8961 184.984 24.8757 184.933 24.8757H178.361C178.31 24.8757 178.264 24.8961 178.223 24.9368C178.193 24.9674 178.178 25.0082 178.178 25.0591V31.6308C178.178 31.6818 178.193 31.7276 178.223 31.7684C178.264 31.799 178.31 31.8142 178.361 31.8142Z" fill="black"/>
<path d="M188.847 33.8469V22.8583H197.711C198.098 22.8583 198.455 22.9551 198.781 23.1487C199.107 23.3423 199.367 23.6021 199.561 23.9282C199.754 24.244 199.851 24.5955 199.851 24.9827V27.9476C199.851 28.3348 199.754 28.6914 199.561 29.0174C199.367 29.3435 199.107 29.6033 198.781 29.7969C198.455 29.9803 198.098 30.072 197.711 30.072L190.865 30.0873V33.8469H188.847ZM191.048 28.0393H197.62C197.671 28.0393 197.716 28.024 197.757 27.9935C197.798 27.9629 197.818 27.9221 197.818 27.8712V25.0591C197.818 25.0082 197.798 24.9674 197.757 24.9368C197.716 24.8961 197.671 24.8757 197.62 24.8757H191.048C190.997 24.8757 190.951 24.8961 190.91 24.9368C190.88 24.9674 190.865 25.0082 190.865 25.0591V27.8712C190.865 27.9221 190.88 27.9629 190.91 27.9935C190.951 28.024 190.997 28.0393 191.048 28.0393Z" fill="black"/>
<path d="M90.5524 56.2619V59.6939H88.8364V50.5939H92.3984C92.8664 50.5939 93.2737 50.6719 93.6204 50.8279C93.9671 50.9752 94.2531 51.1745 94.4784 51.4259C94.7124 51.6685 94.8857 51.9502 94.9984 52.2709C95.1197 52.5829 95.1804 52.9035 95.1804 53.2329V53.5449C95.1804 53.8829 95.1197 54.2165 94.9984 54.5459C94.8857 54.8665 94.7124 55.1569 94.4784 55.4169C94.2531 55.6682 93.9671 55.8719 93.6204 56.0279C93.2737 56.1839 92.8664 56.2619 92.3984 56.2619H90.5524ZM90.5524 54.6239H92.2294C92.6107 54.6239 92.9097 54.5199 93.1264 54.3119C93.3517 54.1039 93.4644 53.8352 93.4644 53.5059V53.3499C93.4644 53.0205 93.3517 52.7519 93.1264 52.5439C92.9097 52.3359 92.6107 52.2319 92.2294 52.2319H90.5524V54.6239ZM102.919 59.6939H101.203V56.9639C101.203 56.7559 101.147 56.5869 101.034 56.4569C100.93 56.3269 100.753 56.2619 100.501 56.2619H98.5254V59.6939H96.8094V50.5939H100.293C100.761 50.5939 101.173 50.6589 101.528 50.7889C101.884 50.9189 102.178 51.1009 102.412 51.3349C102.655 51.5602 102.837 51.8245 102.958 52.1279C103.088 52.4312 103.153 52.7562 103.153 53.1029V53.4149C103.153 53.7875 103.054 54.1385 102.854 54.4679C102.655 54.7885 102.347 55.0355 101.931 55.2089V55.4429C102.235 55.4775 102.473 55.5945 102.646 55.7939C102.828 55.9932 102.919 56.2445 102.919 56.5479V59.6939ZM98.5254 54.6239H100.163C100.579 54.6239 100.896 54.5285 101.112 54.3379C101.329 54.1385 101.437 53.8612 101.437 53.5059V53.3499C101.437 53.0465 101.329 52.7865 101.112 52.5699C100.896 52.3445 100.579 52.2319 100.163 52.2319H98.5254V54.6239ZM104.756 50.5939H110.84V52.2319H108.656V58.0559H110.84V59.6939H104.756V58.0559H106.94V52.2319H104.756V50.5939ZM112.092 50.5939H113.86L115.641 58.8359H115.875L117.656 50.5939H119.424L117.37 59.6939H114.146L112.092 50.5939ZM125.265 57.7439H122.171L121.729 59.6939H119.935L122.106 50.5939H125.33L127.501 59.6939H125.707L125.265 57.7439ZM122.535 56.1059H124.888L123.835 51.4519H123.601L122.535 56.1059ZM128.402 50.5939H134.954V52.2319H132.536V59.6939H130.82V52.2319H128.402V50.5939ZM136.726 50.5939H142.472V52.2319H138.442V54.3119H142.316V55.9499H138.442V58.0559H142.628V59.6939H136.726V50.5939ZM157.118 53.3759C157.118 53.0119 156.975 52.6955 156.689 52.4269C156.412 52.1582 156.017 52.0239 155.506 52.0239C155.073 52.0239 154.73 52.1149 154.479 52.2969C154.228 52.4702 154.102 52.7085 154.102 53.0119C154.102 53.1679 154.132 53.3109 154.193 53.4409C154.254 53.5622 154.358 53.6749 154.505 53.7789C154.661 53.8742 154.86 53.9609 155.103 54.0389C155.354 54.1169 155.671 54.1905 156.052 54.2599C157.005 54.4332 157.733 54.7235 158.236 55.1309C158.739 55.5382 158.99 56.1405 158.99 56.9379V57.0939C158.99 57.5185 158.912 57.9042 158.756 58.2509C158.609 58.5889 158.392 58.8792 158.106 59.1219C157.82 59.3645 157.473 59.5509 157.066 59.6809C156.659 59.8109 156.199 59.8759 155.688 59.8759C155.09 59.8759 154.561 59.7935 154.102 59.6289C153.651 59.4555 153.274 59.2215 152.971 58.9269C152.668 58.6235 152.438 58.2725 152.282 57.8739C152.126 57.4665 152.048 57.0245 152.048 56.5479V56.1579H153.764V56.4699C153.764 57.0159 153.92 57.4535 154.232 57.7829C154.553 58.1035 155.047 58.2639 155.714 58.2639C156.234 58.2639 156.62 58.1512 156.871 57.9259C157.122 57.7005 157.248 57.4319 157.248 57.1199C157.248 56.9725 157.222 56.8339 157.17 56.7039C157.118 56.5652 157.027 56.4439 156.897 56.3399C156.767 56.2272 156.589 56.1275 156.364 56.0409C156.139 55.9542 155.853 55.8805 155.506 55.8199C155.047 55.7419 154.626 55.6422 154.245 55.5209C153.864 55.3909 153.53 55.2219 153.244 55.0139C152.967 54.8059 152.75 54.5459 152.594 54.2339C152.438 53.9219 152.36 53.5405 152.36 53.0899V53.0119C152.36 52.6392 152.434 52.2969 152.581 51.9849C152.737 51.6642 152.949 51.3869 153.218 51.1529C153.495 50.9189 153.825 50.7369 154.206 50.6069C154.596 50.4769 155.029 50.4119 155.506 50.4119C156.043 50.4119 156.52 50.4899 156.936 50.6459C157.352 50.7932 157.699 50.9969 157.976 51.2569C158.262 51.5169 158.474 51.8159 158.613 52.1539C158.76 52.4919 158.834 52.8472 158.834 53.2199V53.6879H157.118V53.3759ZM165.065 57.7439H161.971L161.529 59.6939H159.735L161.906 50.5939H165.13L167.301 59.6939H165.507L165.065 57.7439ZM162.335 56.1059H164.688L163.635 51.4519H163.401L162.335 56.1059ZM168.566 50.5939H170.282V58.0559H174.416V59.6939H168.566V50.5939ZM176.526 50.5939H182.272V52.2319H178.242V54.3119H182.116V55.9499H178.242V58.0559H182.428V59.6939H176.526V50.5939ZM192.316 50.5939H198.4V52.2319H196.216V58.0559H198.4V59.6939H192.316V58.0559H194.5V52.2319H192.316V50.5939ZM204.878 53.3759C204.878 53.0119 204.735 52.6955 204.449 52.4269C204.172 52.1582 203.777 52.0239 203.266 52.0239C202.833 52.0239 202.49 52.1149 202.239 52.2969C201.988 52.4702 201.862 52.7085 201.862 53.0119C201.862 53.1679 201.892 53.3109 201.953 53.4409C202.014 53.5622 202.118 53.6749 202.265 53.7789C202.421 53.8742 202.62 53.9609 202.863 54.0389C203.114 54.1169 203.431 54.1905 203.812 54.2599C204.765 54.4332 205.493 54.7235 205.996 55.1309C206.499 55.5382 206.75 56.1405 206.75 56.9379V57.0939C206.75 57.5185 206.672 57.9042 206.516 58.2509C206.369 58.5889 206.152 58.8792 205.866 59.1219C205.58 59.3645 205.233 59.5509 204.826 59.6809C204.419 59.8109 203.959 59.8759 203.448 59.8759C202.85 59.8759 202.321 59.7935 201.862 59.6289C201.411 59.4555 201.034 59.2215 200.731 58.9269C200.428 58.6235 200.198 58.2725 200.042 57.8739C199.886 57.4665 199.808 57.0245 199.808 56.5479V56.1579H201.524V56.4699C201.524 57.0159 201.68 57.4535 201.992 57.7829C202.313 58.1035 202.807 58.2639 203.474 58.2639C203.994 58.2639 204.38 58.1512 204.631 57.9259C204.882 57.7005 205.008 57.4319 205.008 57.1199C205.008 56.9725 204.982 56.8339 204.93 56.7039C204.878 56.5652 204.787 56.4439 204.657 56.3399C204.527 56.2272 204.349 56.1275 204.124 56.0409C203.899 55.9542 203.613 55.8805 203.266 55.8199C202.807 55.7419 202.386 55.6422 202.005 55.5209C201.624 55.3909 201.29 55.2219 201.004 55.0139C200.727 54.8059 200.51 54.5459 200.354 54.2339C200.198 53.9219 200.12 53.5405 200.12 53.0899V53.0119C200.12 52.6392 200.194 52.2969 200.341 51.9849C200.497 51.6642 200.709 51.3869 200.978 51.1529C201.255 50.9189 201.585 50.7369 201.966 50.6069C202.356 50.4769 202.789 50.4119 203.266 50.4119C203.803 50.4119 204.28 50.4899 204.696 50.6459C205.112 50.7932 205.459 50.9969 205.736 51.2569C206.022 51.5169 206.234 51.8159 206.373 52.1539C206.52 52.4919 206.594 52.8472 206.594 53.2199V53.6879H204.878V53.3759ZM216.326 50.5939H218.042V58.0559H222.176V59.6939H216.326V50.5939ZM224.156 50.5939H230.24V52.2319H228.056V58.0559H230.24V59.6939H224.156V58.0559H226.34V52.2319H224.156V50.5939ZM231.492 50.5939H233.26L235.041 58.8359H235.275L237.056 50.5939H238.824L236.77 59.6939H233.546L231.492 50.5939ZM240.206 50.5939H245.952V52.2319H241.922V54.3119H245.796V55.9499H241.922V58.0559H246.108V59.6939H240.206V50.5939Z" fill="black"/>
<g filter="url(#filter0_d_6367_16446)">
<rect x="100.136" y="74.6939" width="134.727" height="36" fill="white"/>
<path d="M138.552 96.1819H139.344V90.8059H138.552V89.2939H142.236C142.636 89.2939 142.988 89.3499 143.292 89.4619C143.604 89.5739 143.864 89.7259 144.072 89.9179C144.288 90.1099 144.448 90.3419 144.552 90.6139C144.664 90.8779 144.72 91.1659 144.72 91.4779V91.6219C144.72 92.1019 144.584 92.4859 144.312 92.7739C144.048 93.0619 143.712 93.2619 143.304 93.3739V93.5899C143.712 93.7019 144.048 93.9059 144.312 94.2019C144.584 94.4899 144.72 94.8739 144.72 95.3539V95.4979C144.72 95.8099 144.664 96.1019 144.552 96.3739C144.448 96.6379 144.288 96.8699 144.072 97.0699C143.864 97.2619 143.604 97.4139 143.292 97.5259C142.988 97.6379 142.636 97.6939 142.236 97.6939H138.552V96.1819ZM140.928 96.1819H142.08C142.416 96.1819 142.688 96.1099 142.896 95.9659C143.104 95.8219 143.208 95.5819 143.208 95.2459V95.1739C143.208 94.8379 143.104 94.5979 142.896 94.4539C142.688 94.3099 142.416 94.2379 142.08 94.2379H140.928V96.1819ZM140.928 92.7259H142.08C142.416 92.7259 142.688 92.6579 142.896 92.5219C143.104 92.3779 143.208 92.1379 143.208 91.8019V91.7299C143.208 91.3939 143.104 91.1579 142.896 91.0219C142.688 90.8779 142.416 90.8059 142.08 90.8059H140.928V92.7259ZM152.044 89.2939V94.7899C152.044 95.7499 151.788 96.5019 151.276 97.0459C150.772 97.5899 150.02 97.8619 149.02 97.8619C148.02 97.8619 147.264 97.5899 146.752 97.0459C146.248 96.5019 145.996 95.7499 145.996 94.7899V89.2939H147.58V94.7899C147.58 95.2859 147.696 95.6739 147.928 95.9539C148.16 96.2339 148.524 96.3739 149.02 96.3739C149.516 96.3739 149.88 96.2339 150.112 95.9539C150.344 95.6739 150.46 95.2859 150.46 94.7899V89.2939H152.044ZM155.575 94.7419H155.215L152.803 89.2939H154.531L156.259 93.3019H156.475L158.203 89.2939H159.931L157.519 94.7419H157.159V97.6939H155.575V94.7419ZM171.639 90.4219C172.183 90.5339 172.603 90.7579 172.899 91.0939C173.195 91.4299 173.343 91.8299 173.343 92.2939V92.4619H171.975V92.2939C171.975 92.1979 171.947 92.1059 171.891 92.0179C171.843 91.9219 171.759 91.8419 171.639 91.7779V92.8579C172.871 93.0259 173.487 93.6139 173.487 94.6219V94.6939C173.487 95.2299 173.323 95.6659 172.995 96.0019C172.675 96.3379 172.223 96.5419 171.639 96.6139V97.3579H170.487V96.5779C170.159 96.5219 169.879 96.4299 169.647 96.3019C169.415 96.1659 169.223 96.0059 169.071 95.8219C168.927 95.6379 168.819 95.4339 168.747 95.2099C168.675 94.9779 168.639 94.7419 168.639 94.5019V94.2619H170.007V94.4299C170.007 94.6139 170.043 94.7739 170.115 94.9099C170.187 95.0459 170.311 95.1539 170.487 95.2339V93.9379C169.935 93.8419 169.499 93.6619 169.179 93.3979C168.867 93.1339 168.711 92.7499 168.711 92.2459V92.1739C168.711 91.9019 168.759 91.6659 168.855 91.4659C168.951 91.2579 169.079 91.0819 169.239 90.9379C169.399 90.7859 169.587 90.6659 169.803 90.5779C170.019 90.4899 170.247 90.4259 170.487 90.3859V89.6299H171.639V90.4219ZM172.119 94.7179C172.119 94.5979 172.091 94.4899 172.035 94.3939C171.979 94.2899 171.847 94.2059 171.639 94.1419V95.2819C171.823 95.2259 171.947 95.1459 172.011 95.0419C172.083 94.9379 172.119 94.8299 172.119 94.7179ZM170.079 92.1739C170.079 92.2859 170.103 92.3819 170.151 92.4619C170.199 92.5339 170.311 92.6019 170.487 92.6659V91.7179C170.343 91.7659 170.239 91.8339 170.175 91.9219C170.111 92.0019 170.079 92.0859 170.079 92.1739ZM175.29 89.2939H178.338C179.378 89.2939 180.15 89.5379 180.654 90.0259C181.158 90.5059 181.41 91.2539 181.41 92.2699V94.7179C181.41 95.7339 181.158 96.4859 180.654 96.9739C180.15 97.4539 179.378 97.6939 178.338 97.6939H175.29V96.1699H176.082V90.8059H175.29V89.2939ZM178.338 96.1819C178.89 96.1819 179.274 96.0539 179.49 95.7979C179.714 95.5339 179.826 95.1259 179.826 94.5739V92.2699C179.826 91.7899 179.714 91.4259 179.49 91.1779C179.274 90.9299 178.89 90.8059 178.338 90.8059H177.666V96.1819H178.338ZM182.662 92.5579C182.662 91.4699 182.934 90.6259 183.478 90.0259C184.03 89.4259 184.79 89.1259 185.758 89.1259C186.726 89.1259 187.482 89.4259 188.026 90.0259C188.578 90.6259 188.854 91.4699 188.854 92.5579V94.4299C188.854 95.5499 188.578 96.4019 188.026 96.9859C187.482 97.5699 186.726 97.8619 185.758 97.8619C184.79 97.8619 184.03 97.5699 183.478 96.9859C182.934 96.4019 182.662 95.5499 182.662 94.4299V92.5579ZM185.758 96.4219C186.046 96.4219 186.286 96.3779 186.478 96.2899C186.67 96.1939 186.826 96.0619 186.946 95.8939C187.066 95.7259 187.15 95.5259 187.198 95.2939C187.246 95.0619 187.27 94.8059 187.27 94.5259V92.4619C187.27 92.1979 187.242 91.9499 187.186 91.7179C187.13 91.4859 187.042 91.2859 186.922 91.1179C186.802 90.9499 186.646 90.8179 186.454 90.7219C186.262 90.6179 186.03 90.5659 185.758 90.5659C185.486 90.5659 185.254 90.6179 185.062 90.7219C184.87 90.8179 184.714 90.9499 184.594 91.1179C184.474 91.2859 184.386 91.4859 184.33 91.7179C184.274 91.9499 184.246 92.1979 184.246 92.4619V94.5259C184.246 94.8059 184.27 95.0619 184.318 95.2939C184.366 95.5259 184.45 95.7259 184.57 95.8939C184.69 96.0619 184.846 96.1939 185.038 96.2899C185.23 96.3779 185.47 96.4219 185.758 96.4219ZM191.882 94.5259V97.6939H190.298V89.2939H193.586C194.018 89.2939 194.394 89.3659 194.714 89.5099C195.034 89.6459 195.298 89.8299 195.506 90.0619C195.722 90.2859 195.882 90.5459 195.986 90.8419C196.098 91.1299 196.154 91.4259 196.154 91.7299V92.0179C196.154 92.3299 196.098 92.6379 195.986 92.9419C195.882 93.2379 195.722 93.5059 195.506 93.7459C195.298 93.9779 195.034 94.1659 194.714 94.3099C194.394 94.4539 194.018 94.5259 193.586 94.5259H191.882ZM191.882 93.0139H193.43C193.782 93.0139 194.058 92.9179 194.258 92.7259C194.466 92.5339 194.57 92.2859 194.57 91.9819V91.8379C194.57 91.5339 194.466 91.2859 194.258 91.0939C194.058 90.9019 193.782 90.8059 193.43 90.8059H191.882V93.0139Z" fill="black"/>
<rect x="100.636" y="75.1939" width="133.727" height="35" stroke="black"/>
</g>
<defs>
<filter id="filter0_d_6367_16446" x="100.136" y="74.6939" width="137.727" height="39" filterUnits="userSpaceOnUse" color-interpolation-filters="sRGB">
<feFlood flood-opacity="0" result="BackgroundImageFix"/>
<feColorMatrix in="SourceAlpha" type="matrix" values="0 0 0 0 0 0 0 0 0 0 0 0 0 0 0 0 0 0 127 0" result="hardAlpha"/>
<feOffset dx="3" dy="3"/>
<feComposite in2="hardAlpha" operator="out"/>
<feColorMatrix type="matrix" values="0 0 0 0 0.0196078 0 0 0 0 0.0196078 0 0 0 0 0.0196078 0 0 0 1 0"/>
<feBlend mode="normal" in2="BackgroundImageFix" result="effect1_dropShadow_6367_16446"/>
<feBlend mode="normal" in="SourceGraphic" in2="effect1_dropShadow_6367_16446" result="shape"/>
</filter>
</defs>
</svg>
