<svg width="40" height="40" viewBox="0 0 40 40" fill="none" xmlns="http://www.w3.org/2000/svg">
<rect width="40" height="40" fill="#131313"/>
<g clip-path="url(#clip0_6147_21550)">
<path d="M13.0686 21.2231L13.7432 16.1539L7.89117 12.0914L13.2381 13.9026L14.5009 11.9651L19.1119 9.104L29.2754 14.7035L29.8022 23.2471L25.2742 29.5394L21.6951 30.0878L23.546 26.6999V23.4383L22.2003 20.8911L20.8328 19.9855L18.7294 22.1539V24.4486L17.0878 25.9855L15.0024 26.2381L14.0788 26.7612L12.5635 26.2778L11.9321 24.0048L13.0686 22.4065V21.2231Z" fill="white"/>
<path d="M22.4131 12.0481C21.2983 11.8172 20.0788 11.8785 20.0788 11.8785C20.0788 11.8785 19.6783 13.7294 17.196 14.2165C17.2141 14.2165 20.4757 15.3313 22.4131 12.0481Z" fill="#94A6C3"/>
<path d="M23.4233 28.843C24.7691 27.7895 25.7793 26.3391 26.2447 24.6975C26.2664 24.6362 26.454 24.5279 26.5803 24.445C26.7895 24.3187 27.0024 24.2141 27.0421 24.0445C27.1251 23.561 27.1684 23.0559 27.1684 22.5508C27.1684 22.3632 26.9771 22.172 26.7895 21.9844C26.6416 21.8581 26.4937 21.7101 26.4937 21.6055C26.2844 19.6897 25.4005 17.9002 23.9898 16.5977L23.8418 16.7456C25.2093 18.0301 26.0932 19.7763 26.2844 21.6272C26.3061 21.7967 26.472 21.9627 26.6416 22.1323C26.7895 22.2586 26.9591 22.4498 26.9591 22.5328C26.9591 23.0162 26.9158 23.4997 26.8328 23.9831C26.8112 24.0661 26.6236 24.1527 26.4756 24.2357C26.2664 24.3403 26.0752 24.445 26.0355 24.6145C25.5304 26.4041 24.3722 27.9627 22.8352 28.9729C23.1094 28.3848 23.9717 26.469 24.4336 25.4985L24.3506 22.3848L21.6771 19.7979L20.1618 20.0072L18.4985 22.7023C18.4985 22.7023 19.2778 23.6909 18.181 24.8491C17.1094 25.9856 16.2652 26.2381 16.2652 26.2381L15.4859 25.816C15.7168 25.5201 16.1822 25.08 16.5394 24.7841C17.1491 24.279 17.7589 24.2357 17.7589 23.6909C17.7841 22.5508 16.561 22.8647 16.561 22.8647L16.1173 23.2868L15.9296 24.8454L15.006 26.0036L14.9014 25.9819L13.386 25.6464C13.386 25.6464 14.3133 25.1629 14.4612 24.6145C14.6091 24.0878 14.1654 22.3415 14.1437 22.2369C14.1654 22.2586 14.5875 22.6157 14.7751 23.2038C15.1106 22.2766 15.5544 21.3926 15.6807 21.3097C15.807 21.2267 17.5099 20.3211 17.5099 20.3211L16.9435 21.8148L17.3656 21.5839L18.3758 19.1016C18.3758 19.1016 19.3644 18.6181 20.1004 18.6181C21.4245 18.5965 23.3836 16.9765 22.4997 14.0721C22.7523 14.1768 27.1287 16.3668 27.8863 20.6602C28.4528 23.9615 26.5803 27.0535 23.4233 28.843Z" fill="#94A6C3"/>
<path d="M18.4155 12.5099C18.899 11.9399 18.7113 11.0992 18.7113 11.0992L17.3006 13.1846C17.279 13.1846 17.8021 13.2063 18.4155 12.5099Z" fill="#1B314F"/>
<path d="M13.6783 23.8966L13.8478 23.0559C13.8478 23.0559 13.1515 24.2754 13.0902 24.445C13.0252 24.6362 13.1335 24.9717 13.4041 24.9501C13.6783 24.9284 14.0138 24.5279 14.0138 24.2357C14.0138 23.8569 13.6783 23.8966 13.6783 23.8966Z" fill="#1B314F"/>
<path d="M26.1798 10.5111C26.1798 10.5111 27.2333 10.5544 28.3265 10.6807C25.8623 8.74323 23.528 8.17679 21.6338 8.17679C19.0253 8.17679 17.2574 9.25195 17.1491 9.31329L17.9718 8.00721C17.9718 8.00721 14.6885 7.68972 13.5304 11.1642C13.2345 10.4281 12.9639 9.35298 12.9639 9.35298C12.9639 9.35298 11.2574 10.8503 12.0583 13.3325C10.0992 12.6182 7.30308 11.626 7.19484 11.6079C7.04692 11.5863 7.00362 11.6512 7.00362 11.6512C7.00362 11.6512 6.96033 11.7126 7.08661 11.8208C7.32112 12.0048 11.7408 15.27 12.7114 15.9014C12.5021 16.659 12.5021 17.0162 12.7114 17.3734C13.0072 17.8569 13.0253 18.1094 12.9856 18.4666C12.9423 18.8238 12.5635 21.9194 12.4805 22.2983C12.3975 22.6771 11.5135 24.0229 11.5532 24.4233C11.5965 24.8238 12.1413 26.5268 12.6284 26.718C12.9856 26.8443 13.8695 27.1185 14.4576 27.1185C14.6669 27.1185 14.8581 27.0752 14.9411 26.9922C15.2983 26.6783 15.4029 26.6133 15.6555 26.6133C15.6771 26.6133 15.6988 26.6133 15.7168 26.6133C15.8214 26.6133 15.9477 26.635 16.0956 26.635C16.4312 26.635 16.8749 26.5701 17.1888 26.2778C17.6506 25.816 18.4516 25.1846 18.7042 24.8888C19.0217 24.4883 19.1876 23.9435 19.1046 23.3951C19.0397 22.89 19.3139 22.4462 19.6314 22.006C20.0319 21.4793 20.7679 20.534 20.7679 20.534C22.2219 21.6236 23.1275 23.2868 23.1275 25.1377C23.1275 28.4209 20.2664 31.0728 16.7306 31.0728C16.1822 31.0728 15.6591 31.0114 15.1323 30.8851C16.7523 31.4516 18.1197 31.6428 19.2381 31.6428C21.6158 31.6428 22.8785 30.7805 22.8785 30.7805C22.8785 30.7805 22.4384 31.3506 21.7204 32C21.742 32 21.742 32 21.742 32C25.6783 31.4516 27.5941 28.2117 27.5941 28.2117C27.5941 28.2117 27.4462 29.2652 27.2586 29.9796C32.4937 26.0433 31.6098 21.1185 31.5881 20.9525C31.6314 21.0138 32.1582 21.6452 32.4288 21.9844C33.273 13.3109 26.1798 10.5111 26.1798 10.5111ZM18.1197 24.362C18.0367 24.4666 17.6795 24.7841 17.427 25.015C17.1744 25.2459 16.9002 25.4768 16.6909 25.6897C16.608 25.7727 16.4384 25.816 16.1858 25.816C16.1028 25.816 16.0163 25.816 15.9549 25.816C15.9116 25.816 15.8719 25.816 15.8286 25.816C15.7853 25.816 15.7637 25.816 15.7457 25.816C15.6807 25.816 15.6194 25.816 15.5544 25.816C15.8719 25.3939 16.7956 24.4269 17.1131 24.2177C17.4919 23.9651 17.6831 23.7126 17.4486 23.2724C17.2177 22.8286 16.608 22.9369 16.608 22.9369C16.608 22.9369 16.9651 22.7889 17.2826 22.7889C16.8822 22.6843 16.377 22.7889 16.1461 23.0198C15.8936 23.2507 15.9369 24.0734 15.8322 24.5965C15.7276 25.1449 15.3704 25.4191 14.822 25.9242C14.5262 26.1984 14.3169 26.2814 14.1473 26.2814C13.7902 26.2201 13.368 26.1118 13.0722 26.0072C12.8629 25.733 12.5454 24.8274 12.4624 24.4486C12.5238 24.2393 12.7763 23.7955 12.9026 23.543C13.1552 23.0595 13.3031 22.7853 13.3464 22.5328C13.4294 22.1756 13.7036 19.9639 13.8082 19.0403C14.0824 19.3975 14.4612 19.9892 14.3746 20.368C14.9844 19.5057 14.5442 18.6615 14.3313 18.3259C14.1437 17.9904 13.8912 17.3157 14.1004 16.6013C14.3097 15.8869 15.0674 13.9062 15.0674 13.9062C15.0674 13.9062 15.3199 14.35 15.6771 14.2634C16.0343 14.1804 18.917 9.84365 18.917 9.84365C18.917 9.84365 19.6963 11.5466 18.8737 12.7913C18.0331 14.0325 17.2105 14.2634 17.2105 14.2634C17.2105 14.2634 18.3686 14.4726 19.4402 13.6933C19.8804 14.7252 20.3025 15.7968 20.3241 15.9447C20.2592 16.0926 19.4185 18.113 19.3356 18.2393C19.2923 18.2826 19 18.3656 18.7871 18.4089C18.43 18.5135 18.2207 18.5785 18.1341 18.6398C17.9862 18.7661 17.3115 20.617 16.9976 21.5225C16.6188 21.6272 16.2399 21.84 15.9657 22.2586C16.1137 22.1539 16.5755 22.089 16.9146 22.0493C17.2105 22.0277 18.1125 22.5111 18.347 23.4167C18.347 23.4384 18.347 23.4384 18.347 23.46C18.3939 23.7919 18.2893 24.1094 18.1197 24.362ZM16.1425 24.6146C16.3337 24.3403 16.3121 23.8785 16.3338 23.7306C16.3554 23.5827 16.3951 23.3085 16.5647 23.2688C16.7342 23.2255 17.1347 23.2904 17.1347 23.5827C17.1347 23.8569 16.8389 23.9182 16.6296 24.1094C16.4781 24.2538 16.1822 24.5713 16.1425 24.6146ZM24.5382 20.5917C24.7475 19.5201 24.7691 18.5929 24.7078 17.8352C25.5268 18.9284 26.0319 20.2562 26.1798 21.6236C26.2015 21.7931 26.3674 21.9591 26.537 22.1287C26.6849 22.255 26.8545 22.4245 26.8545 22.5292C26.8545 23.0126 26.8112 23.4961 26.7282 23.9832C26.7066 24.0445 26.519 24.1527 26.371 24.2357C26.1618 24.3403 25.9706 24.445 25.9309 24.6146C25.469 26.2345 24.4769 27.6669 23.1528 28.6771C25.1083 26.635 26.0535 23.2652 24.5382 20.5917ZM23.2141 28.8647C24.5815 27.8112 25.635 26.3391 26.0968 24.6759C26.1185 24.6146 26.3061 24.5063 26.4324 24.4233C26.6416 24.3187 26.8545 24.1924 26.8942 24.0229C26.9772 23.5394 27.0205 23.0343 27.0205 22.5292C27.0205 22.3416 26.8292 22.1503 26.6416 21.9627C26.537 21.8364 26.3674 21.6885 26.3674 21.5839C26.1979 20.0469 25.5881 18.5965 24.6428 17.3951C24.2207 14.8695 22.5394 14.0902 22.4961 14.0685C22.5394 14.1335 23.6326 15.7102 22.8749 17.561C22.0956 19.4336 20.0968 19.1413 19.9273 19.1593C19.7577 19.1593 19.1083 20 18.2856 21.5586C18.181 21.5153 17.7372 21.4107 17.2321 21.4973C17.611 20.4438 18.181 18.9501 18.2856 18.8238C18.3289 18.7805 18.6428 18.6975 18.8557 18.6362C19.2562 18.5316 19.4438 18.4666 19.5087 18.3836C19.552 18.3187 19.7613 17.8352 19.9706 17.3301C20.1618 17.3301 20.6452 17.2868 20.6849 17.2652C20.7282 17.2219 21.1287 16.1936 21.1287 16.0673C21.1287 15.9627 20.3061 13.9206 19.9922 13.1413C20.1401 12.9717 20.288 12.7625 20.4324 12.5316C24.7475 12.997 28.1173 16.659 28.1173 21.0968C28.1173 24.5063 26.1185 27.4756 23.2141 28.8647Z" fill="#1B314F"/>
<path d="M17.6145 17.4997C18.015 17.0379 17.8058 16.1756 17.0661 16.0277C17.2574 15.5875 17.528 14.7036 17.528 14.7036C17.528 14.7036 15.3812 18.0698 15.1936 18.1347C15.0024 18.1996 14.8148 17.46 14.8148 17.46C14.4143 18.997 15.4895 19.2063 15.6157 18.7228C16.2038 18.5713 17.2141 17.9399 17.6145 17.4997Z" fill="#1B314F"/>
<path d="M15.7817 18.3187L16.8749 16.4462C16.8749 16.4462 17.5063 16.7637 17.1888 17.2688C16.792 17.8569 15.7817 18.3187 15.7817 18.3187Z" fill="#FFD923"/>
<path d="M29.3151 26.9922C28.9976 27.4143 28.6404 27.8545 28.2219 28.2766C30.935 23.056 28.3481 18.279 28.2435 18.0914C28.4347 18.2827 28.6223 18.4919 28.7919 18.6795C30.8737 20.9922 31.1263 24.4667 29.3151 26.9922Z" fill="#D82122"/>
<path d="M31.8407 20.2778C30.8918 17.7306 29.546 15.5622 26.5803 13.6067C23.7192 11.7126 20.6452 11.8605 20.4757 11.8821C20.454 11.8821 20.4324 11.8821 20.4324 11.8821C20.537 11.8388 20.6416 11.8172 20.7463 11.7992C21.3993 11.5899 22.2399 11.4203 23.0842 11.3157C25.3175 10.9946 27.5689 11.7522 29.1059 13.3758C29.1275 13.3975 29.1275 13.3975 29.1492 13.4191C30.8954 15.27 31.801 17.5827 31.8407 20.2778Z" fill="#D82122"/>
<path d="M25.9056 9.85812C22.7703 9.27002 20.7499 9.56227 19.2959 10.1107C19.2526 9.9411 19.1046 9.60556 18.9784 9.33136C18.5418 9.85812 18.0764 10.4895 17.7841 10.89C16.9832 11.4384 16.6476 11.9652 16.6476 11.9652C17.1095 10.3849 18.4588 9.20869 20.1004 8.91284C20.5623 8.82986 21.0674 8.78656 21.6158 8.78656C23.0662 8.80821 24.5166 9.16539 25.9056 9.85812Z" fill="#D82122"/>
<path d="M14.3097 13.899C11.849 13.816 12.668 10.9513 12.7113 10.7853C12.7113 10.807 12.8773 13.0367 14.3097 13.899Z" fill="#D82122"/>
<path d="M16.7306 8.74323C14.8364 9.87973 15.2153 12.5929 15.2153 12.5929C13.4041 9.84004 16.5827 8.80817 16.7306 8.74323Z" fill="#D82122"/>
<path d="M13.6169 14.6567C13.7432 14.7613 13.8695 14.9525 13.7216 15.2267C13.6386 15.3746 13.5123 15.353 13.3211 15.27C13.0685 15.1437 11.5532 14.2598 10.1858 13.3542C11.7444 13.9026 13.3211 14.4907 13.5736 14.617C13.5736 14.617 13.5953 14.6386 13.6169 14.6567Z" fill="white"/>
</g>
<defs>
<clipPath id="clip0_6147_21550">
<rect width="25.5009" height="24" fill="white" transform="translate(7 8)"/>
</clipPath>
</defs>
</svg>
