<svg width="40" height="40" viewBox="0 0 40 40" fill="none" xmlns="http://www.w3.org/2000/svg">
<rect width="40" height="40" fill="#131313"/>
<path d="M14.1766 9L5.8829 17.2501L19.6984 31.0003L33.5139 17.2555L25.2203 9H14.1766Z" fill="#2DE370"/>
<path d="M13.7858 14.3585C17.0477 11.0911 22.3408 11.0911 25.6027 14.3585L28.4236 17.1793L25.6027 20.0001C22.3408 23.2675 17.0477 23.2675 13.7858 20.0001L10.9649 17.1793L13.7858 14.3585Z" fill="#121619"/>
<path fill-rule="evenodd" clip-rule="evenodd" d="M19.6986 20.6373C17.7926 20.6373 16.2461 19.1289 16.2461 17.2719C16.2461 15.415 17.7926 13.9066 19.6986 13.9066C21.6045 13.9066 23.1511 15.415 23.1511 17.2719C23.1511 19.1289 21.61 20.6373 19.6986 20.6373Z" fill="white"/>
<path d="M19.6964 18.6333C18.8959 18.6333 18.2425 17.9798 18.2425 17.1793C18.2425 16.3734 18.8959 15.7253 19.6964 15.7253C20.4969 15.7253 21.1504 16.3788 21.1504 17.1793C21.1504 17.9853 20.5024 18.6333 19.6964 18.6333Z" fill="#121619"/>
</svg>
