<svg width="40" height="40" viewBox="0 0 40 40" fill="none" xmlns="http://www.w3.org/2000/svg">
<rect width="40" height="40" fill="#131313"/>
<path d="M32 20C32 26.627 26.627 32 20 32C13.373 32 8 26.627 8 20C8 13.373 13.373 8 20 8C26.6284 8 32 13.373 32 20Z" fill="#2081E2"/>
<path d="M13.9195 20.4032L13.9713 20.3218L17.0929 15.4383C17.1386 15.3669 17.2458 15.3742 17.2803 15.4519C17.8018 16.6207 18.2519 18.0743 18.041 18.9792C17.951 19.3515 17.7045 19.8558 17.427 20.3218C17.3913 20.3896 17.3519 20.4562 17.3099 20.5203C17.2902 20.5499 17.2569 20.5672 17.2211 20.5672H14.0107C13.9244 20.5672 13.8739 20.4735 13.9195 20.4032Z" fill="white"/>
<path d="M27.8337 21.3107V22.0837C27.8337 22.1281 27.8066 22.1675 27.7671 22.1848C27.5255 22.2884 26.6982 22.6681 26.3543 23.1464C25.4764 24.3682 24.8058 26.1152 23.3066 26.1152H17.0521C14.8354 26.1152 13.0391 24.3128 13.0391 22.0886V22.0171C13.0391 21.9579 13.0871 21.9099 13.1463 21.9099H16.6329C16.702 21.9099 16.7525 21.974 16.7464 22.0418C16.7217 22.2686 16.7636 22.5004 16.8709 22.7112C17.078 23.1317 17.507 23.3943 17.9706 23.3943H19.6967V22.0467H17.9903C17.9028 22.0467 17.851 21.9456 17.9016 21.8741C17.9201 21.8457 17.941 21.8162 17.9632 21.7829C18.1247 21.5536 18.3553 21.1973 18.5846 20.7916C18.7412 20.5179 18.8928 20.2257 19.0149 19.9323C19.0395 19.8793 19.0592 19.825 19.079 19.772C19.1123 19.6783 19.1468 19.5908 19.1714 19.5033C19.1961 19.4293 19.2158 19.3516 19.2356 19.2789C19.2935 19.0298 19.3182 18.766 19.3182 18.4923C19.3182 18.385 19.3132 18.2728 19.3034 18.1656C19.2984 18.0485 19.2836 17.9313 19.2688 17.8142C19.259 17.7106 19.2405 17.6083 19.2208 17.501C19.1961 17.3445 19.1616 17.1891 19.1221 17.0325L19.1086 16.9734C19.079 16.8661 19.0543 16.7638 19.0198 16.6565C18.9224 16.3199 18.8102 15.992 18.6919 15.685C18.6487 15.563 18.5994 15.4458 18.5501 15.3287C18.4773 15.1524 18.4034 14.9921 18.3356 14.8405C18.301 14.7714 18.2714 14.7086 18.2419 14.6444C18.2086 14.5717 18.1741 14.499 18.1395 14.4299C18.1149 14.3769 18.0865 14.3276 18.0668 14.2783L17.856 13.8887C17.8264 13.8357 17.8757 13.7728 17.9336 13.7888L19.2528 14.1464H19.2565C19.259 14.1464 19.2602 14.1476 19.2614 14.1476L19.4353 14.1957L19.6264 14.2499L19.6967 14.2696V13.4855C19.6967 13.107 20 12.8 20.3748 12.8C20.5622 12.8 20.7323 12.8765 20.8544 13.001C20.9764 13.1255 21.0528 13.2957 21.0528 13.4855V14.6494L21.1934 14.6888C21.2045 14.6925 21.2156 14.6975 21.2254 14.7049C21.26 14.7308 21.3093 14.769 21.3722 14.8158C21.4215 14.8553 21.4745 14.9034 21.5386 14.9527C21.6656 15.055 21.8172 15.1869 21.9837 15.3386C22.028 15.3768 22.0712 15.4162 22.1107 15.4557C22.3252 15.6554 22.5656 15.8897 22.7949 16.1486C22.859 16.2213 22.9219 16.2953 22.986 16.373C23.0501 16.4519 23.1179 16.5295 23.1771 16.6072C23.2548 16.7108 23.3386 16.818 23.4114 16.9302C23.4459 16.9832 23.4853 17.0375 23.5186 17.0905C23.6123 17.2323 23.6949 17.379 23.7738 17.5257C23.8071 17.5935 23.8416 17.6675 23.8712 17.7402C23.9588 17.9363 24.0278 18.136 24.0722 18.3357C24.0857 18.3789 24.0956 18.4257 24.1005 18.4676V18.4775C24.1153 18.5367 24.1203 18.5996 24.1252 18.6637C24.1449 18.8683 24.1351 19.073 24.0907 19.2789C24.0722 19.3664 24.0475 19.449 24.0179 19.5366C23.9883 19.6204 23.9588 19.7079 23.9205 19.7905C23.8466 19.9619 23.759 20.1333 23.6555 20.2935C23.6222 20.3527 23.5827 20.4156 23.5433 20.4748C23.5001 20.5376 23.4557 20.5968 23.4163 20.6548C23.362 20.7288 23.3041 20.8064 23.2449 20.8755C23.1919 20.9482 23.1377 21.021 23.0785 21.0851C22.9959 21.1825 22.917 21.2749 22.8344 21.3637C22.7851 21.4216 22.732 21.4808 22.6778 21.5338C22.6248 21.593 22.5705 21.646 22.5212 21.6953C22.4386 21.7779 22.3696 21.842 22.3116 21.8951L22.176 22.0196C22.1563 22.0369 22.1304 22.0467 22.1033 22.0467H21.0528V23.3943H22.3745C22.6704 23.3943 22.9515 23.2895 23.1783 23.0971C23.256 23.0293 23.5951 22.7359 23.9957 22.2933C24.0093 22.2785 24.0266 22.2674 24.0463 22.2625L27.6969 21.2071C27.7647 21.1874 27.8337 21.2392 27.8337 21.3107Z" fill="white"/>
</svg>
