<svg width="40" height="40" viewBox="0 0 40 40" fill="none" xmlns="http://www.w3.org/2000/svg">
<rect width="40" height="40" fill="#131313"/>
<path d="M13.2659 8C10.3576 8 8 10.3549 8 13.2597V26.7403C8 29.6451 10.3576 32 13.2659 32H26.7341C29.6424 32 32 29.6451 32 26.7403V13.2597C32 10.3549 29.6424 8 26.7341 8H13.2659Z" fill="#FEDA03"/>
<path d="M24.6039 19.9718C25.3522 19.7744 26.0298 19.1962 26.0298 18.054C26.0298 16.1363 24.4345 15.6851 22.3733 15.6851H14.1992V24.3149H17.6439V21.3819H21.7239C22.3592 21.3819 22.7263 21.6357 22.7263 22.2562V24.3008H26.171V22.1433C26.1569 20.9871 25.5075 20.2397 24.6039 19.9718Z" fill="black"/>
<path d="M22.2853 18.0964H17.6406V19.2809H22.2853H22.2994C22.6242 19.2809 22.8783 19.013 22.8783 18.6887C22.8783 18.3644 22.6242 18.0964 22.2994 18.0964C22.2994 18.0964 22.2994 18.0964 22.2853 18.0964Z" fill="#FEDA03"/>
</svg>
