<svg width="18" height="18" viewBox="0 0 18 18" fill="none" xmlns="http://www.w3.org/2000/svg">
<path d="M13.7305 4.5V3.75H13.0078V3H12.2852V2.25H5.05859V3H4.33594V3.75H3.61328V4.5H2.89062V12H3.61328V12.75H4.33594V13.5H5.05859V14.25H10.8398V15.75H11.5625V16.5H13.7305V15H13.0078V14.25H12.2852V13.5H13.0078V12.75H13.7305V12H14.4531V4.5H13.7305ZM13.0078 10.5H12.2852V11.25H11.5625V12H10.8398V12.75H6.50391V12H5.78125V11.25H5.05859V10.5H4.33594V6H5.05859V5.25H5.78125V4.5H6.50391V3.75H10.8398V4.5H11.5625V5.25H12.2852V6H13.0078V10.5Z" fill="#00F026"/>
</svg>
