<svg width="40" height="40" viewBox="0 0 40 40" fill="none" xmlns="http://www.w3.org/2000/svg">
<rect width="40" height="40" fill="#131313"/>
<path d="M5.95955 20.0218H4.94847V21.2789C4.94847 21.4851 5.0126 21.6398 5.14086 21.7429C5.27185 21.846 5.44514 21.8976 5.66073 21.8976C5.77534 21.8976 5.87495 21.887 5.95955 21.8658V22.9207C5.79035 22.963 5.60069 22.9841 5.39056 22.9841C4.89662 22.9841 4.50229 22.8348 4.20756 22.536C3.91283 22.2373 3.76547 21.8235 3.76547 21.2948V20.0218H3V18.9313H3.76547V17.8843H4.94847V18.9313H5.95955V20.0218Z" fill="#FF0083"/>
<path d="M8.39514 18.8519C8.69259 18.8519 8.97231 18.9048 9.23429 19.0106C9.499 19.1163 9.7255 19.2617 9.9138 19.4468C10.1048 19.6292 10.2549 19.85 10.3641 20.1091C10.476 20.3655 10.5319 20.6391 10.5319 20.9299C10.5319 21.3186 10.4378 21.6715 10.2495 21.9888C10.0639 22.306 9.80737 22.5545 9.47989 22.7343C9.15515 22.9114 8.79356 23 8.39514 23C7.78658 23 7.27763 22.803 6.86829 22.4091C6.45895 22.0152 6.25427 21.5221 6.25427 20.9299C6.25427 20.3377 6.45895 19.8434 6.86829 19.4468C7.27763 19.0502 7.78658 18.8519 8.39514 18.8519ZM8.39514 19.9465C8.11405 19.9465 7.87936 20.0403 7.69107 20.228C7.5055 20.4131 7.41271 20.6471 7.41271 20.9299C7.41271 21.2049 7.5055 21.4362 7.69107 21.6239C7.87936 21.8116 8.11405 21.9055 8.39514 21.9055C8.67076 21.9055 8.90272 21.8116 9.09102 21.6239C9.27932 21.4362 9.37347 21.2049 9.37347 20.9299C9.37347 20.6471 9.27932 20.4131 9.09102 20.228C8.90545 20.0403 8.67349 19.9465 8.39514 19.9465Z" fill="#FF0083"/>
<path d="M15.9598 18.8519C16.4565 18.8519 16.8603 18.9974 17.1714 19.2882C17.4853 19.579 17.6422 19.9636 17.6422 20.4422V22.9207H16.451V20.7118C16.451 20.4765 16.3869 20.2902 16.2586 20.1527C16.1303 20.0152 15.9598 19.9465 15.7469 19.9465C15.5368 19.9465 15.3594 20.0139 15.2148 20.1487C15.0729 20.2809 15.0019 20.4686 15.0019 20.7118V22.9207H13.8189V20.7118C13.8189 20.4765 13.7548 20.2902 13.6265 20.1527C13.4983 20.0152 13.325 19.9465 13.1067 19.9465C12.8993 19.9465 12.726 20.0126 12.5868 20.1447C12.4476 20.2769 12.378 20.466 12.378 20.7118V22.9207H11.195V18.9313H12.378V19.4111C12.6427 19.0383 13.0344 18.8519 13.5529 18.8519C14.0959 18.8519 14.4848 19.0463 14.7195 19.4349C14.8423 19.2604 15.0156 19.1203 15.2393 19.0145C15.4631 18.9061 15.7033 18.8519 15.9598 18.8519Z" fill="#FF0083"/>
<path d="M18.555 17.2062C18.6969 17.0687 18.8661 17 19.0626 17C19.2591 17 19.4283 17.0687 19.5702 17.2062C19.7121 17.341 19.783 17.5023 19.783 17.69C19.783 17.8804 19.7121 18.0443 19.5702 18.1818C19.4283 18.3192 19.2591 18.388 19.0626 18.388C18.8661 18.388 18.6969 18.3192 18.555 18.1818C18.4131 18.0443 18.3422 17.8804 18.3422 17.69C18.3422 17.5023 18.4131 17.341 18.555 17.2062ZM18.4732 18.9313H19.6561V22.9207H18.4732V18.9313Z" fill="#FF0083"/>
<path d="M22.5338 17.234C23.0905 17.234 23.5954 17.3556 24.0484 17.5988C24.5041 17.842 24.8616 18.1791 25.1209 18.61C25.3801 19.041 25.5098 19.5221 25.5098 20.0535C25.5098 20.5955 25.3801 21.0859 25.1209 21.5248C24.8616 21.961 24.5041 22.3034 24.0484 22.5519C23.5954 22.7978 23.0905 22.9207 22.5338 22.9207H20.524V17.234H22.5338ZM22.6198 21.7667C23.0837 21.7667 23.4671 21.6041 23.77 21.2789C24.0757 20.9537 24.2285 20.5453 24.2285 20.0535C24.2285 19.5697 24.0771 19.1718 23.7741 18.8599C23.474 18.5453 23.0892 18.388 22.6198 18.388H21.7643V21.7667H22.6198Z" fill="white"/>
<path d="M29.6605 22.9207L29.2921 21.9689H27.0284L26.6518 22.9207H25.3337L27.667 17.234H28.6699L31.0113 22.9207H29.6605ZM27.4378 20.9379H28.8827L28.1705 19.1216L27.4378 20.9379Z" fill="white"/>
<path d="M32.4686 17.5354C32.927 17.2816 33.4374 17.1547 33.9995 17.1547C34.5617 17.1547 35.072 17.2816 35.5305 17.5354C35.9889 17.7892 36.3478 18.1395 36.607 18.5863C36.869 19.033 37 19.5301 37 20.0773C37 20.6246 36.869 21.1216 36.607 21.5684C36.3478 22.0152 35.9889 22.3655 35.5305 22.6193C35.072 22.8731 34.5617 23 33.9995 23C33.4374 23 32.927 22.8731 32.4686 22.6193C32.0128 22.3655 31.6553 22.0152 31.3961 21.5684C31.1368 21.1216 31.0072 20.6246 31.0072 20.0773C31.0072 19.5301 31.1368 19.033 31.3961 18.5863C31.6553 18.1395 32.0128 17.7892 32.4686 17.5354ZM35.2275 18.8282C34.9001 18.4924 34.4907 18.3245 33.9995 18.3245C33.5083 18.3245 33.099 18.4924 32.7715 18.8282C32.444 19.1613 32.2803 19.5777 32.2803 20.0773C32.2803 20.577 32.444 20.9947 32.7715 21.3305C33.099 21.6662 33.5083 21.8341 33.9995 21.8341C34.4907 21.8341 34.9001 21.6662 35.2275 21.3305C35.555 20.9947 35.7188 20.577 35.7188 20.0773C35.7188 19.5777 35.555 19.1613 35.2275 18.8282Z" fill="white"/>
</svg>
