<svg width="40" height="40" viewBox="0 0 40 40" fill="none" xmlns="http://www.w3.org/2000/svg">
<rect width="40" height="40" fill="#131313"/>
<path d="M19.5866 11.948C23.7694 11.948 27.1792 15.3454 27.3366 19.5987L31.0059 21.911C31.1155 21.2538 31.1724 20.5789 31.1724 19.8896C31.1724 13.3232 25.9857 8 19.5858 8C13.1859 8 8 13.324 8 19.8905C8 21.3122 8.24314 22.6764 8.68986 23.9391C9.13163 25.1917 9.77286 26.3453 10.574 27.3619L13.8683 25.2855L17.6671 22.8912V32H21.4056V22.8176L25.3115 25.2796L28.605 27.356C29.4053 26.3394 30.0457 25.1849 30.4867 23.9315L27.1206 21.8095L23.2518 19.3712L19.5949 17.0665L19.5866 17.0716L15.9379 19.3712L12.0551 21.818C11.9075 21.2056 11.8292 20.5671 11.8292 19.9082C11.8292 15.512 15.3024 11.9488 19.5858 11.9488L19.5866 11.948ZM19.5866 21.6708L19.594 21.675L19.5866 21.6801V21.6699V21.6708Z" fill="#FF0083"/>
</svg>
