<svg width="40" height="40" viewBox="0 0 40 40" fill="none" xmlns="http://www.w3.org/2000/svg">
<rect width="40" height="40" fill="#131313"/>
<path d="M16.5124 11.1521C16.2583 11.1136 16.2429 11.1059 16.3661 11.0905C16.5971 11.052 17.1438 11.1059 17.5133 11.1906C18.3911 11.3985 19.1841 11.9298 20.0388 12.8691L20.2621 13.1155L20.5855 13.0616C21.9483 12.846 23.3342 13.0154 24.4892 13.5467C24.8049 13.693 25.313 13.9856 25.3746 14.0626C25.3977 14.0857 25.4285 14.2397 25.4593 14.4014C25.544 14.9711 25.5055 15.4023 25.3284 15.7257C25.236 15.9028 25.2283 15.9567 25.2899 16.1107C25.3438 16.2339 25.4824 16.3186 25.621 16.3186C25.9059 16.3186 26.2216 15.8566 26.3602 15.2098L26.4141 14.9557L26.5296 15.0866C27.1455 15.7873 27.6383 16.7343 27.723 17.4119L27.7461 17.589L27.6383 17.4273C27.4612 17.1501 27.2764 16.9653 27.0454 16.8113C26.6297 16.5342 26.1908 16.4418 25.0281 16.3802C23.9733 16.3263 23.3804 16.2339 22.7876 16.0414C21.7866 15.718 21.2784 15.2791 20.085 13.7238C19.5537 13.0308 19.2303 12.6536 18.8993 12.3456C18.1678 11.6603 17.444 11.2907 16.5124 11.1521Z" fill="#FF007A"/>
<path d="M25.6133 12.6921C25.6364 12.2301 25.7057 11.9221 25.8289 11.6449C25.8828 11.5371 25.929 11.4447 25.9367 11.4447C25.9444 11.4447 25.9213 11.5294 25.8905 11.6295C25.7981 11.899 25.7827 12.2686 25.8443 12.6998C25.9213 13.2464 25.9675 13.3234 26.5527 13.9163C26.8222 14.1935 27.1456 14.54 27.2534 14.694L27.4612 14.9634L27.2534 14.771C26.9993 14.5323 26.4064 14.0703 26.2832 14.001C26.1985 13.9548 26.1831 13.9548 26.1292 14.0087C26.083 14.0549 26.0676 14.1319 26.0599 14.4784C26.0522 15.0173 25.9752 15.3715 25.7981 15.718C25.698 15.9028 25.6826 15.8643 25.775 15.6564C25.8366 15.4947 25.8443 15.4254 25.8443 14.9019C25.8443 13.847 25.7211 13.5929 24.982 13.1617C24.7972 13.0539 24.4892 12.8923 24.2967 12.8076C24.1042 12.7229 23.9579 12.6536 23.9656 12.6459C23.9887 12.6228 24.7048 12.8307 24.9974 12.9462C25.4285 13.1078 25.4978 13.1309 25.5517 13.1155C25.5748 13.0924 25.5979 12.9924 25.6133 12.6921Z" fill="#FF007A"/>
<path d="M17.0052 14.4938C16.4893 13.7854 16.1659 12.6921 16.2352 11.8836L16.2583 11.6295L16.3738 11.6526C16.5971 11.6911 16.9744 11.8374 17.1592 11.9452C17.6519 12.2455 17.8598 12.6305 18.0831 13.6314C18.1447 13.924 18.2294 14.2551 18.2679 14.3706C18.3295 14.5554 18.5605 14.9711 18.753 15.2483C18.8916 15.4485 18.7992 15.5409 18.4989 15.5101C18.0292 15.4716 17.4055 15.0481 17.0052 14.4938Z" fill="#FF007A"/>
<path d="M24.982 19.7757C22.5566 18.8055 21.702 17.9663 21.702 16.5419C21.702 16.334 21.7097 16.1646 21.7174 16.1646C21.7251 16.1646 21.8175 16.2339 21.9253 16.3186C22.418 16.7113 22.9647 16.8806 24.4892 17.0962C25.3824 17.2271 25.8905 17.3349 26.3602 17.4812C27.8385 17.9663 28.7548 18.9595 28.9704 20.307C29.032 20.6996 28.9935 21.4311 28.8934 21.8238C28.8087 22.1318 28.5623 22.6784 28.5007 22.7015C28.4853 22.7092 28.4622 22.6399 28.4622 22.5398C28.4391 22.0317 28.1773 21.5389 27.7461 21.1693C27.2611 20.7612 26.5989 20.4225 24.982 19.7757Z" fill="#FF007A"/>
<path d="M23.2803 20.1838C23.2495 20.0067 23.1956 19.7757 23.1648 19.6756L23.1032 19.4908L23.2187 19.6217C23.3804 19.7988 23.5036 20.0298 23.6114 20.3301C23.6961 20.5611 23.7038 20.6304 23.7038 21.0076C23.7038 21.3772 23.6961 21.4542 23.6191 21.6621C23.5036 21.9932 23.3573 22.2242 23.1109 22.4706C22.6643 22.9171 22.1023 23.1635 21.2784 23.2713C21.1321 23.2867 20.7163 23.3175 20.3544 23.3406C19.4305 23.3868 18.8222 23.4869 18.2833 23.6794C18.2063 23.7102 18.137 23.7256 18.1293 23.7179C18.1062 23.6948 18.4757 23.4792 18.7837 23.3252C19.2149 23.1173 19.6461 23.0018 20.6085 22.8478C21.0859 22.7708 21.5787 22.6707 21.7019 22.6322C22.8645 22.255 23.4728 21.331 23.2803 20.1838Z" fill="#FF007A"/>
<path d="M24.3891 22.1395C24.0657 21.4542 23.9964 20.7844 24.1658 20.1684C24.1812 20.0991 24.212 20.0452 24.2351 20.0452C24.2505 20.0452 24.3275 20.0837 24.4045 20.1376C24.5508 20.2377 24.851 20.4071 25.6441 20.8306C26.6373 21.3695 27.1994 21.7853 27.5844 22.255C27.9232 22.6708 28.1311 23.1404 28.2312 23.7179C28.2851 24.0413 28.2543 24.8343 28.1696 25.1577C27.9001 26.1972 27.2841 27.0133 26.4064 27.483C26.2755 27.5523 26.16 27.6062 26.1523 27.6139C26.1369 27.6139 26.1831 27.4984 26.2601 27.3521C26.5604 26.7361 26.5912 26.1356 26.3679 25.4657C26.2293 25.0576 25.9521 24.5572 25.3823 23.7179C24.7125 22.7478 24.5508 22.486 24.3891 22.1395Z" fill="#FF007A"/>
<path d="M15.2881 25.8584C16.189 25.1038 17.3054 24.5649 18.3295 24.4032C18.7683 24.3339 19.4998 24.357 19.9079 24.4648C20.5623 24.6342 21.1475 25.0037 21.4478 25.4426C21.7481 25.8738 21.8713 26.2511 22.0022 27.0903C22.0561 27.4214 22.11 27.7525 22.1254 27.8295C22.2254 28.2607 22.4179 28.6148 22.6566 28.7842C23.0339 29.0614 23.6961 29.0768 24.3428 28.8304C24.4506 28.7842 24.5507 28.7611 24.5507 28.7688C24.5738 28.7919 24.2504 29.0075 24.0195 29.123C23.7115 29.277 23.4651 29.3386 23.1417 29.3386C22.5488 29.3386 22.0561 29.0383 21.648 28.4301C21.571 28.3069 21.3862 27.9527 21.2476 27.6293C20.8164 26.6514 20.6008 26.3512 20.1004 26.0201C19.6615 25.7352 19.0994 25.6813 18.6759 25.8892C18.1216 26.1587 17.9676 26.867 18.3602 27.3136C18.5219 27.4907 18.8145 27.6447 19.0532 27.6755C19.5075 27.7294 19.8925 27.3906 19.8925 26.9363C19.8925 26.6437 19.777 26.4744 19.4921 26.3435C19.0994 26.1664 18.6759 26.3743 18.6836 26.7361C18.6836 26.8901 18.7529 26.9902 18.9069 27.0595C19.007 27.1057 19.007 27.1057 18.93 27.0903C18.5681 27.0133 18.4834 26.5822 18.776 26.2973C19.1225 25.9508 19.8386 26.1048 20.085 26.5745C20.1851 26.7746 20.2005 27.1596 20.1081 27.3983C19.9079 27.9296 19.315 28.2068 18.7221 28.0528C18.3141 27.9527 18.1524 27.8372 17.6596 27.3367C16.8049 26.4667 16.4738 26.2973 15.2496 26.1048L15.0109 26.0663L15.2881 25.8584Z" fill="#FF007A"/>
<path fill-rule="evenodd" clip-rule="evenodd" d="M11.2844 10.2436C14.1332 13.6776 16.0889 15.0943 16.3045 15.3946C16.4816 15.641 16.42 15.8643 16.112 16.0414C15.9426 16.1415 15.5885 16.2339 15.4114 16.2339C15.2112 16.2339 15.1419 16.1569 15.1419 16.1569C15.0264 16.0491 14.9648 16.0645 14.3642 15.0173C13.5404 13.7469 12.8474 12.6921 12.832 12.6767C12.7858 12.6382 12.7858 12.6382 14.2795 15.2945C14.5182 15.8489 14.3257 16.0491 14.3257 16.1261C14.3257 16.2878 14.2795 16.3725 14.0793 16.5881C13.7483 16.9576 13.602 17.3657 13.4942 18.2204C13.371 19.1751 13.0399 19.8527 12.1005 21.0153C11.5539 21.6929 11.4615 21.8161 11.3229 22.0933C11.1458 22.4398 11.0996 22.6322 11.0842 23.0634C11.0611 23.5254 11.1073 23.818 11.2459 24.2569C11.3691 24.6418 11.5 24.8959 11.8311 25.4041C12.1159 25.843 12.2776 26.1664 12.2776 26.2973C12.2776 26.3973 12.3007 26.3973 12.7396 26.2973C13.7945 26.0586 14.6568 25.6428 15.1342 25.1346C15.4345 24.8189 15.5038 24.6418 15.5038 24.2107C15.5038 23.9258 15.4961 23.8642 15.4191 23.7025C15.2959 23.4407 15.0649 23.2174 14.5644 22.8709C13.9023 22.4244 13.6251 22.0625 13.5481 21.562C13.4865 21.1539 13.5558 20.869 13.9253 20.1068C14.3026 19.3214 14.395 18.9826 14.4566 18.1896C14.4951 17.6737 14.5567 17.4735 14.703 17.3118C14.857 17.1424 14.9956 17.0885 15.3806 17.0346C16.0042 16.9499 16.4046 16.7882 16.728 16.488C17.0129 16.2262 17.1284 15.9798 17.1438 15.6025L17.1592 15.3176L16.9975 15.1328C16.4277 14.4707 10.8917 9.70462 10.8532 9.70462C10.8609 9.72002 11.0457 9.95101 11.2844 10.2436ZM12.6087 23.5793C12.7396 23.3483 12.6703 23.0557 12.4547 22.9171C12.2468 22.7785 11.9312 22.8478 11.9312 23.0249C11.9312 23.0788 11.962 23.1173 12.0312 23.1558C12.1467 23.2174 12.1544 23.279 12.062 23.4099C11.9697 23.5485 11.9774 23.664 12.0851 23.741C12.2545 23.8719 12.4855 23.8026 12.6087 23.5793Z" fill="#FF007A"/>
<path fill-rule="evenodd" clip-rule="evenodd" d="M17.5595 17.1963C17.2669 17.2887 16.9821 17.5967 16.8974 17.9201C16.8435 18.1203 16.8743 18.4668 16.9513 18.5669C17.0822 18.7362 17.2053 18.7824 17.5441 18.7824C18.214 18.7747 18.7915 18.4899 18.8608 18.1357C18.9147 17.8431 18.6606 17.4427 18.3141 17.2656C18.1293 17.1732 17.7443 17.1347 17.5595 17.1963ZM18.3372 17.7969C18.4373 17.6506 18.3988 17.4966 18.2217 17.3888C17.8906 17.1886 17.3824 17.3503 17.3824 17.666C17.3824 17.82 17.6442 17.9894 17.8829 17.9894C18.0523 17.9894 18.2679 17.897 18.3372 17.7969Z" fill="#FF007A"/>
</svg>
