<?xml version="1.0" standalone="no"?>
<!DOCTYPE svg PUBLIC "-//W3C//DTD SVG 1.1//EN" "http://www.w3.org/Graphics/SVG/1.1/DTD/svg11.dtd" >
<svg xmlns="http://www.w3.org/2000/svg" xmlns:xlink="http://www.w3.org/1999/xlink" version="1.1">
<metadata>
Created by FontForge 20170731 at Thu Dec 14 03:15:15 2023
 By Aleksey,,,
Copr.1990, 1991 Letterror, Just van Rossum
</metadata>
<defs>
<font id="Brokenscript-BoldCond" horiz-adv-x="1085" >
  <font-face 
    font-family="Brokenscript-BoldCond"
    font-weight="500"
    font-stretch="normal"
    units-per-em="2048"
    panose-1="0 0 0 0 0 0 0 0 0 0"
    ascent="1638"
    descent="-410"
    x-height="1100"
    cap-height="1528"
    bbox="-115 -487 2159 2028"
    underline-thickness="40"
    underline-position="-312"
    unicode-range="U+0020-FB02"
  />
<missing-glyph horiz-adv-x="573" 
 />
    <glyph glyph-name=".notdef" horiz-adv-x="573" 
 />
    <glyph glyph-name=".null" horiz-adv-x="0" 
 />
    <glyph glyph-name="nonmarkingreturn" horiz-adv-x="682" 
 />
    <glyph glyph-name="space" unicode=" " horiz-adv-x="333" 
d="M27 727z" />
    <glyph glyph-name="exclam" unicode="!" horiz-adv-x="575" 
d="M246 461l-99 973l324 90l-104 -1030zM150 135q0 64 47 110t110 46q61 0 107.5 -46t46.5 -110q0 -61 -47 -108t-107 -47q-63 0 -110 46.5t-47 108.5z" />
    <glyph glyph-name="quotedbl" unicode="&#x22;" horiz-adv-x="790" 
d="M113 924v553h227l-98 -553h-129zM471 924v553h227l-98 -553h-129z" />
    <glyph glyph-name="numbersign" unicode="#" horiz-adv-x="1216" 
d="M666 233h-248l-56 -399h-151l55 399h-237l22 148h238l57 410h-237l20 147h238l55 383h149l-53 -383h248l53 383h152l-56 -383h269l-21 -147h-268l-57 -410h268l-21 -148h-270l-55 -399h-150zM686 381l57 410h-247l-58 -410h248z" />
    <glyph glyph-name="dollar" unicode="$" horiz-adv-x="1044" 
d="M614 1731v-199l402 -109l-228 -266l-352 109l-4 -250l549 -232l-2 -473l-414 -264v-313h-139v239l-428 127l281 240l352 -117l4 305l-553 234l4 381l389 297v291h139z" />
    <glyph glyph-name="percent" unicode="%" horiz-adv-x="1609" 
d="M471 29l573 1501l105 -49l-576 -1504zM354 1479q133 0 219 -121t86 -303q0 -198 -83 -327.5t-216 -129.5q-137 0 -222 125.5t-85 318.5q0 187 82.5 312t218.5 125zM1241 836q133 0 219 -121t86 -303q0 -198 -83 -327.5t-216 -129.5q-137 0 -222 125.5t-85 318.5
q0 187 82.5 312t218.5 125zM475 1038q0 70 -4 120.5t-15.5 102t-36.5 78.5t-63 27q-24 0 -42.5 -10.5t-31 -25.5t-21 -42.5t-13 -51.5t-7 -62t-3 -64.5t-0.5 -69.5q0 -50 1 -82.5t5 -75t12.5 -69.5t22.5 -52t36 -37.5t52 -12.5q25 0 44 11.5t30.5 36.5t18.5 51t10 68.5t4 75
t1 84.5zM1362 395q0 70 -4 120.5t-15.5 102t-37 78.5t-64.5 27q-27 0 -47.5 -12t-33 -38t-20.5 -52.5t-11 -69t-4 -74t-1 -80.5q0 -50 1 -82.5t5 -75t12.5 -69.5t22.5 -52t36 -37.5t52 -12.5q25 0 43.5 11.5t30 36t19 51.5t11 68.5t4.5 75.5t1 84z" />
    <glyph glyph-name="ampersand" unicode="&#x26;" horiz-adv-x="1396" 
d="M406 907l-3 -237l195 86zM1051 -49l-250 151l-352 -155l-371 198l22 707l480 254l235 -191l6 318l295 113l-4 -328l326 4l-127 -199h-191l-8 -553l252 -112zM801 156l8 487l-408 -108l-4 -207z" />
    <glyph glyph-name="quotesingle" unicode="'" horiz-adv-x="415" 
d="M113 924v553h227l-98 -553h-129z" />
    <glyph glyph-name="parenleft" unicode="(" horiz-adv-x="602" 
d="M354 578q0 -394 74.5 -619.5t206.5 -294.5l-43 -110q-98 50 -176 110.5t-146.5 146.5t-113.5 191t-71 245.5t-26 309.5q0 209 40 382t114 299t168 214.5t211 146.5l43 -110q-281 -149 -281 -911z" />
    <glyph glyph-name="parenright" unicode=")" horiz-adv-x="602" 
d="M-27 -336q134 69 208.5 294t74.5 620q0 761 -283 911l45 110q116 -58 210 -146.5t168 -214.5t114.5 -299t40.5 -382q0 -169 -26 -309.5t-71 -245.5t-113.5 -191t-146.5 -146.5t-176 -110.5z" />
    <glyph glyph-name="asterisk" unicode="*" horiz-adv-x="837" 
d="M373 1184l-70 293h240l-72 -293l236 202l110 -210l-295 -76l312 -101l-140 -190l-223 209l70 -301l-238 -2l70 301l-219 -215l-121 209l293 92l-306 80l117 209z" />
    <glyph glyph-name="plus" unicode="+" horiz-adv-x="1296" 
d="M1194 479h-453v-434h-209v434h-450v209h450v428h209v-428h453v-209z" />
    <glyph glyph-name="comma" unicode="," horiz-adv-x="450" 
d="M440 221l-340 -502l-80 41l183 582z" />
    <glyph glyph-name="hyphen" unicode="-" horiz-adv-x="747" 
d="M86 670h557v-242h-557v242z" />
    <glyph glyph-name="period" unicode="." horiz-adv-x="524" 
d="M90 152q0 75 52 126.5t126 51.5q71 0 122.5 -52t51.5 -126q0 -71 -52 -124t-122 -53q-73 0 -125.5 53t-52.5 124z" />
    <glyph glyph-name="slash" unicode="/" horiz-adv-x="720" 
d="M238 -31l458 1567l-172 51l-458 -1567z" />
    <glyph glyph-name="zero" unicode="0" horiz-adv-x="1011" 
d="M496 1053q124 0 227.5 -68.5t163 -189.5t59.5 -269q0 -242 -126 -404.5t-312 -162.5q-193 0 -322 157.5t-129 393.5q0 230 122.5 386.5t316.5 156.5zM711 506q0 409 -211 409q-61 0 -103 -30.5t-64.5 -88.5t-32 -127.5t-9.5 -160.5q0 -95 10.5 -166t35 -128.5t69.5 -87.5
t110 -30q71 0 115.5 53t62 141t17.5 216z" />
    <glyph glyph-name="one" unicode="1" horiz-adv-x="724" 
d="M479 879v-754l137 -12v-113h-510v113l144 12v754l-144 12v108h510v-108z" />
    <glyph glyph-name="two" unicode="2" horiz-adv-x="1011" 
d="M160 649v277q73 50 178.5 88.5t181.5 38.5q129 0 212 -81t83 -210q0 -32 -7 -63.5t-17.5 -58.5t-30 -57t-36.5 -52.5t-46.5 -52t-49.5 -48.5t-56 -49t-56.5 -46t-59.5 -46.5t-57 -44.5l-55 -45l574 22l-25 -221h-766l2 115l57 51q165 155 222 217q174 191 174 338
q0 92 -37 144.5t-90 52.5q-82 0 -127 -23l-80 -246h-88z" />
    <glyph glyph-name="three" unicode="3" horiz-adv-x="1011" 
d="M604 713q0 96 -39.5 150.5t-118.5 54.5q-84 0 -129 -23l-79 -246h-86v277q70 49 176.5 88t181.5 39q135 0 232.5 -79.5t97.5 -211.5q0 -58 -17.5 -109.5t-41.5 -86t-61 -66.5t-65.5 -49.5t-64.5 -36.5l-70 -39l60 -17q141 -39 224 -127.5t83 -230.5q0 -190 -121 -309
t-309 -119q-59 0 -139.5 30t-137.5 76l-41 33l72 88l41 -35q39 -33 95.5 -55t107.5 -22q89 0 138.5 65.5t49.5 188.5q0 133 -70 209t-247 104l-76 12v90l78 23q134 39 205 119t71 215z" />
    <glyph glyph-name="four" unicode="4" horiz-adv-x="1011" 
d="M608 1053h140v-848h247v-185h-247v-440h-211v440h-480v113zM528 748l-315 -543h315v543z" />
    <glyph glyph-name="five" unicode="5" horiz-adv-x="1011" 
d="M283 793l-17 -263l70 -12q257 -45 384.5 -165t127.5 -304q0 -115 -35.5 -208.5t-95.5 -152.5t-137.5 -90.5t-163.5 -31.5q-145 0 -275 84l-63 41l57 96l49 -31q112 -71 224 -71q111 0 173 66t62 186q0 138 -94 225t-320 125l-59 10l31 702l626 9l-20 -228z" />
    <glyph glyph-name="six" unicode="6" horiz-adv-x="1011" 
d="M768 1430l70 14l20 -119l-74 -20q-131 -37 -228 -112t-142 -177q-34 -70 -45 -117q73 23 184 23q164 0 269.5 -129t105.5 -320q0 -107 -34 -203t-90.5 -163.5t-132.5 -107.5t-157 -40q-186 0 -302 180t-116 473q0 148 56.5 288.5t150 246.5t215 181t250.5 102zM475 799
q-77 0 -127 -15q-16 -118 -16 -241q0 -220 54.5 -343.5t133.5 -123.5q81 0 125.5 84.5t44.5 255.5q0 187 -64.5 285t-150.5 98z" />
    <glyph glyph-name="seven" unicode="7" horiz-adv-x="1011" 
d="M123 776l16 225h774v-77l-524 -1362l-127 63l465 1163z" />
    <glyph glyph-name="eight" unicode="8" horiz-adv-x="1011" 
d="M123 1053q0 161 106 262.5t283 101.5q165 0 267 -90t102 -219q0 -204 -181 -309l-47 -29l62 -41q99 -65 148.5 -148.5t49.5 -209.5q0 -107 -36 -189.5t-96.5 -130t-132.5 -71t-152 -23.5q-195 0 -302.5 83t-107.5 241q0 120 51 205t152 147l51 33l-47 34
q-170 123 -170 353zM483 1292q-86 0 -134 -47.5t-48 -122.5q0 -67 31.5 -114.5t113.5 -102.5l132 -88l38 33q76 65 76 225q0 99 -56 158t-153 59zM274 328q0 -123 61 -189.5t177 -66.5q97 0 156 48t59 134q0 80 -38 143t-144 131l-131 88l-49 -47q-43 -38 -67 -102t-24 -139
z" />
    <glyph glyph-name="nine" unicode="9" horiz-adv-x="1011" 
d="M242 -418l-68 -14l-22 119l73 20q133 37 230.5 112t142.5 177q36 86 45 117q-73 -23 -186 -23q-164 0 -268.5 129t-104.5 320q0 107 33.5 203t90 163.5t132 107.5t156.5 40q186 0 301.5 -180.5t115.5 -473.5q0 -148 -56 -288t-149.5 -246.5t-215 -181t-250.5 -101.5z
M537 213q79 0 125 14q16 118 16 242q0 221 -54 344t-135 123q-80 0 -123.5 -84.5t-43.5 -255.5q0 -187 64.5 -285t150.5 -98z" />
    <glyph glyph-name="colon" unicode=":" horiz-adv-x="516" 
d="M94 147q0 72 51.5 123.5t122.5 51.5q68 0 119 -52t51 -123q0 -68 -51.5 -120t-118.5 -52q-70 0 -122 52t-52 120zM94 838q0 72 51.5 123t122.5 51q68 0 119 -51.5t51 -122.5q0 -68 -51.5 -120t-118.5 -52q-70 0 -122 52t-52 120z" />
    <glyph glyph-name="semicolon" unicode=";" horiz-adv-x="516" 
d="M94 838q0 72 51.5 123t122.5 51q68 0 119 -51.5t51 -122.5q0 -68 -51.5 -120t-118.5 -52q-70 0 -122 52t-52 120zM446 221l-340 -502l-79 41l182 582z" />
    <glyph glyph-name="less" unicode="&#x3c;" horiz-adv-x="813" 
d="M631 27l-586 548l586 549l145 -145l-436 -391l444 -408z" />
    <glyph glyph-name="equal" unicode="=" horiz-adv-x="1167" 
d="M1075 692h-1001v209h1001v-209zM1075 246h-1001v209h1001v-209z" />
    <glyph glyph-name="greater" unicode="&#x3e;" horiz-adv-x="813" 
d="M182 1124l586 -549l-586 -548l-145 145l436 391l-444 408z" />
    <glyph glyph-name="question" unicode="?" horiz-adv-x="630" 
d="M373 680l141 -168l-80 -90l-364 266l241 537l-192 161l112 121l404 -250zM154 135q0 64 47 110t110 46q61 0 107.5 -46t46.5 -110q0 -61 -47 -108t-107 -47q-63 0 -110 46.5t-47 108.5z" />
    <glyph glyph-name="at" unicode="@" horiz-adv-x="1658" 
d="M391 457l447 149v225l-232 87q-45 -16 -106 -49t-99 -60q-221 -160 -221 -455q0 -291 169.5 -465t449.5 -174q137 0 261 69.5t212.5 186t141 274.5t52.5 330t-52.5 331t-141 276.5t-212.5 187.5t-261 70q-134 0 -269 -66t-231 -164l-76 82q116 118 270.5 193.5
t305.5 75.5q160 0 305.5 -77t251.5 -208.5t168.5 -314.5t62.5 -386q0 -160 -40 -310t-113 -270.5t-170 -211t-217 -140t-248 -49.5q-218 0 -384.5 87t-262 258t-95.5 405q0 186 67.5 321t209.5 242q181 136 491 215l285 -164l-12 -616l186 -121l-315 -143l-138 127
l-225 -121l-215 152v221zM829 279l5 213l-199 -78z" />
    <glyph glyph-name="A" unicode="A" horiz-adv-x="1267" 
d="M201 1333l321 197l613 -191l-17 -1073l221 -110l-333 -209l-246 149l6 451h-375l-172 -291l307 -84l-276 -231l-328 155l725 1125zM786 1174l-305 -469h293z" />
    <glyph glyph-name="B" unicode="B" horiz-adv-x="1292" 
d="M1214 219l-645 -268l-432 129l15 1081l-246 158l344 192l248 -147l276 162l371 -121l-10 -418l-246 -190l336 -99zM483 260l348 -98l9 373l-348 94zM668 881l123 -43l4 331l-283 74l-10 -450z" />
    <glyph glyph-name="C" unicode="C" horiz-adv-x="1048" 
d="M1143 1421l-238 -270l-416 117l-12 -901l582 -215l-402 -226l-548 230l12 1030l520 356z" />
    <glyph glyph-name="D" unicode="D" horiz-adv-x="1292" 
d="M1239 252l-657 -315l-553 190l180 145l-94 795l258 139l-447 129l353 244l974 -287zM422 287l446 -101l15 881l-422 117l84 -807z" />
    <glyph glyph-name="E" unicode="E" horiz-adv-x="1128" 
d="M180 55l27 1200l-303 15l299 241l938 -36l-258 -267l-326 17l-6 -346h403l-129 -240h-288l-5 -346l533 -96l-363 -244z" />
    <glyph glyph-name="F" unicode="F" horiz-adv-x="1077" 
d="M219 100l8 539h-227l106 223h136l4 393l-348 23l299 242l983 -45l-258 -267l-326 17l-6 -363h307l-106 -223h-213l-7 -342l242 -113l-362 -235z" />
    <glyph glyph-name="G" unicode="G" horiz-adv-x="1185" 
d="M725 -354l8 450l-250 -149l-374 192l12 1047l520 356l502 -121l-238 -270l-416 117l-12 -918l260 -114l8 426l357 167l-17 -1007z" />
    <glyph glyph-name="H" unicode="H" horiz-adv-x="1462" 
d="M963 641h-451l-4 -344l242 -113l-363 -235l-231 151l20 1057l-219 154l326 217l249 -182l-6 -490h449l4 315l-234 160l351 187l233 -191l-16 -1046l219 -125l-332 -209l-246 164z" />
    <glyph glyph-name="I" unicode="I" horiz-adv-x="714" 
d="M532 1346l-18 -1049l248 -113l-375 -235l-231 151l20 1057l-219 154l326 217z" />
    <glyph glyph-name="J" unicode="J" horiz-adv-x="714" 
d="M532 1346l-8 -1307l-456 -469l-84 59l182 316l10 1212l-219 154l326 217z" />
    <glyph glyph-name="K" unicode="K" horiz-adv-x="1304" 
d="M1032 -57l-520 747l-4 -393l242 -113l-363 -235l-231 151l20 1057l-219 154l326 217l249 -182l-12 -541l385 387l-221 123l324 203l299 -175l-523 -456l562 -744z" />
    <glyph glyph-name="L" unicode="L" horiz-adv-x="958" 
d="M545 1346l-31 -1055l539 -60l-254 -290l-643 102l32 1114l-217 154l326 217z" />
    <glyph glyph-name="M" unicode="M" horiz-adv-x="1738" 
d="M1067 1360l315 166l246 -193l-22 -1069l184 -119l-348 -180l-180 146l20 1028l-221 114l-19 -989l158 -121l-321 -178l-183 146l23 1028l-223 116l-17 -991l150 -119l-314 -180l-180 146l15 1069l-220 153l349 193l217 -170l307 170z" />
    <glyph glyph-name="N" unicode="N" horiz-adv-x="1294" 
d="M860 1096l-358 139l-19 -959l226 -106l-347 -209l-233 150l16 1052l-204 150l305 209l258 -189l274 168l453 -192l-27 -1033l201 -94l-322 -221l-249 150z" />
    <glyph glyph-name="O" unicode="O" horiz-adv-x="1486" 
d="M1337 246l-657 -326l-555 227l4 986l647 397l572 -256zM512 344l434 -168l10 903l-428 174z" />
    <glyph glyph-name="P" unicode="P" horiz-adv-x="1292" 
d="M502 385l356 -115l10 877l-356 92zM811 25l-315 100l-2 -416l-367 -141l8 643l-215 78l221 157l11 711l-246 158l344 196l248 -151l276 166l457 -123l-14 -1108z" />
    <glyph glyph-name="Q" unicode="Q" horiz-adv-x="1486" 
d="M512 344l434 -168l10 903l-428 174zM1286 -410l-573 342l-588 215l4 986l647 397l572 -256l-11 -1028l-297 -146l611 -309z" />
    <glyph glyph-name="R" unicode="R" horiz-adv-x="1292" 
d="M668 893l123 -41l4 315l-283 72l-10 -446zM1335 125l-340 -174l-336 653l-167 45l-5 -352l242 -133l-362 -215l-232 172l17 1036l-246 158l344 196l248 -151l276 166l371 -125l-10 -424l-226 -152z" />
    <glyph glyph-name="S" unicode="S" horiz-adv-x="1044" 
d="M635 528l-553 234l4 381l514 393l416 -113l-228 -266l-352 109l-4 -250l549 -232l-2 -473l-537 -342l-444 131l281 240l352 -117z" />
    <glyph glyph-name="T" unicode="T" horiz-adv-x="1044" 
d="M285 100l26 1155l-389 11l189 262l1024 -29l-197 -270l-279 14l-22 -946l242 -113l-363 -235z" />
    <glyph glyph-name="U" unicode="U" horiz-adv-x="1394" 
d="M856 100l-315 -155l-385 172l20 1040l-217 154l326 217l250 -182l-21 -1029l344 -141l12 981l-219 154l328 217l248 -182l-10 -1049l241 -133l-371 -215z" />
    <glyph glyph-name="V" unicode="V" horiz-adv-x="1339" 
d="M514 379l334 -154l18 932l-215 154l330 213l244 -178l-21 -1076l-536 -313l-512 223l22 977l-217 154l330 217l246 -178z" />
    <glyph glyph-name="W" unicode="W" horiz-adv-x="1855" 
d="M1257 -43l-360 176l-279 -176l-471 227l23 973l-207 154l311 217l236 -178l-23 -967l306 -154l14 928l-205 154l313 213l232 -178l-14 -963l297 -154l16 928l-205 154l315 213l232 -178l-21 -1051z" />
    <glyph glyph-name="X" unicode="X" horiz-adv-x="1007" 
d="M123 836h156l4 321l-328 154l334 217l346 -203l135 207l313 -100l-190 -320l-266 102l-9 -378h236l-117 -220h-123l-4 -256l418 -186l-369 -225l-297 127l-288 -250l-76 65l266 336l8 389h-256z" />
    <glyph glyph-name="Y" unicode="Y" horiz-adv-x="1347" 
d="M864 180l-315 -143l340 -174zM436 74l-280 139l20 946l-219 152l326 219l252 -184l-21 -926l344 -141l12 878l-219 154l328 217l248 -182l-10 -947l24 -436l-561 -362l-551 288z" />
    <glyph glyph-name="Z" unicode="Z" horiz-adv-x="989" 
d="M528 440l-419 234v121l436 362l-606 121l262 264l657 -125l-2 -196l-430 -351l459 -252l-6 -655l-547 -342l-447 172l271 227l368 -153z" />
    <glyph glyph-name="bracketleft" unicode="[" horiz-adv-x="518" 
d="M360 1417v-1665h154v-139h-430v1943h430v-139h-154z" />
    <glyph glyph-name="backslash" unicode="\" horiz-adv-x="720" 
d="M483 -31l-458 1567l172 51l458 -1567z" />
    <glyph glyph-name="bracketright" unicode="]" horiz-adv-x="518" 
d="M152 -248v1665h-154v139h432v-1943h-432v139h154z" />
    <glyph glyph-name="asciicircum" unicode="^" horiz-adv-x="743" 
d="M57 1249l328 379l303 -377l-82 -63l-229 215l-246 -205z" />
    <glyph glyph-name="underscore" unicode="_" horiz-adv-x="880" 
d="M0 0h881v-180h-881v180z" />
    <glyph glyph-name="grave" unicode="`" horiz-adv-x="393" 
d="M326 1184l-416 317l100 129l389 -356z" />
    <glyph glyph-name="a" unicode="a" horiz-adv-x="1003" 
d="M563 221l4 195l-223 -80zM246 449l-170 434l481 235l324 -155l-21 -670l209 -176l-352 -160l-152 182l-252 -174l-241 164v256zM322 887l8 -414l237 80l6 260z" />
    <glyph glyph-name="b" unicode="b" horiz-adv-x="993" 
d="M915 209l-501 -260l-344 157l8 1135l-43 342l43 21l106 -209l213 127l-6 -566l293 144l244 -164zM381 270l225 -92l8 596l-225 82z" />
    <glyph glyph-name="c" unicode="c" horiz-adv-x="778" 
d="M848 958l-213 -178l-238 121v-608l361 -168l-371 -174l-309 160l2 733l471 272z" />
    <glyph glyph-name="d" unicode="d" horiz-adv-x="972" 
d="M365 279l233 -115l6 569l-225 170zM907 182l-497 -235l-344 192l10 666l239 153l-415 332l274 174l733 -602v-680z" />
    <glyph glyph-name="e" unicode="e" horiz-adv-x="901" 
d="M100 852l480 254l286 -234l-4 -215l-461 -122l-4 -207l465 -199l-413 -182l-371 198zM406 907l-3 -237l195 86z" />
    <glyph glyph-name="f" unicode="f" horiz-adv-x="665" 
d="M150 807h-207l204 207l11 272l434 281l295 -125l-187 -213l-243 114l-8 -321h325l-131 -203h-186l-13 -563l185 -131l-328 -160l-170 146z" />
    <glyph glyph-name="g" unicode="g" horiz-adv-x="1013" 
d="M621 799l-222 90l-10 -596l229 -80zM614 121l-217 -125l281 -191zM301 29l-225 129l16 673l520 293l324 -178l-14 -614l67 -451l-502 -299l-452 287z" />
    <glyph glyph-name="h" unicode="h" horiz-adv-x="1040" 
d="M637 772l-223 86l-8 -606l149 -123l-297 -164l-166 150l8 1126l-49 352l45 21l109 -209l213 117l-2 -564l286 142l248 -178l-14 -670l178 -121l-326 -166l-167 150z" />
    <glyph glyph-name="i" unicode="i" horiz-adv-x="544" 
d="M147 821l-190 107l319 172l185 -150l-17 -700l189 -105l-332 -180l-170 131zM569 1513l-303 -313l-88 72l293 317z" />
    <glyph glyph-name="j" unicode="j" horiz-adv-x="544" 
d="M147 813l-190 119l313 168l191 -150l-6 -1065l-426 -319l-58 63l166 217zM575 1507l-309 -307l-84 68l289 321z" />
    <glyph glyph-name="k" unicode="k" horiz-adv-x="1040" 
d="M422 1522l-14 -586l260 145l311 -213v-129l-279 -125l408 -479l-317 -170l-381 570l-4 -285l176 -105l-324 -180l-164 131l8 1145l-49 354l45 19l105 -234zM412 842l-2 -250l260 137z" />
    <glyph glyph-name="l" unicode="l" horiz-adv-x="524" 
d="M410 1225v-965l194 -129l-319 -170l-189 141l6 1125l-55 350l43 18l115 -190l217 123z" />
    <glyph glyph-name="m" unicode="m" horiz-adv-x="1619" 
d="M993 948l285 152l246 -178l-15 -682l187 -119l-332 -156l-168 121l12 668l-219 88l-12 -602l160 -123l-306 -152l-167 121l10 668l-221 90l-4 -604l149 -119l-297 -156l-166 121l15 711l-203 141l323 162l187 -156l288 156z" />
    <glyph glyph-name="n" unicode="n" 
d="M676 745l-223 95l-4 -594l149 -117l-297 -164l-166 127l4 692l-188 144l319 172l187 -160l288 160l244 -156l-12 -698l184 -101l-330 -180l-167 127z" />
    <glyph glyph-name="o" unicode="o" horiz-adv-x="989" 
d="M373 252l233 -82l6 653l-233 62zM913 225l-495 -278l-344 168l6 698l502 303l336 -153z" />
    <glyph glyph-name="p" unicode="p" horiz-adv-x="1032" 
d="M444 242l226 -82l8 612l-223 86zM119 -303l20 1100l-188 151l319 152l187 -142l291 142l243 -174l-12 -731l-473 -215l-76 32l-6 -180l190 -111l-348 -149z" />
    <glyph glyph-name="q" unicode="q" horiz-adv-x="991" 
d="M625 846l-226 72l-10 -658l229 -80zM608 -297l6 377l-225 -117l-313 127l12 760l524 274l320 -125l-12 -1173l174 -115l-322 -139z" />
    <glyph glyph-name="r" unicode="r" horiz-adv-x="821" 
d="M698 717l-241 125l-8 -586l200 -137l-348 -154l-166 137l4 715l-188 111l319 172l189 -158l192 162l262 -148z" />
    <glyph glyph-name="s" unicode="s" horiz-adv-x="823" 
d="M471 375l-379 125l2 360l410 264l321 -153l-178 -162l-260 119l-2 -223l375 -125l-4 -377l-424 -238l-320 160l211 172l244 -129z" />
    <glyph glyph-name="t" unicode="t" horiz-adv-x="739" 
d="M150 811h-207l207 209l8 213l295 113l-4 -328l325 4l-127 -199h-190l-8 -553l251 -112l-313 -207l-252 151z" />
    <glyph glyph-name="u" unicode="u" 
d="M449 295l225 -86l6 627l-154 102l299 162l168 -137l-6 -697l176 -121l-282 -178l-211 142l-277 -142l-258 160l17 709l-199 102l340 162l172 -137z" />
    <glyph glyph-name="v" unicode="v" 
d="M449 289l225 -109l6 637l-150 129l295 154l168 -139l-10 -725l-477 -279l-371 162l17 698l-197 129l338 154l172 -139z" />
    <glyph glyph-name="w" unicode="w" horiz-adv-x="1599" 
d="M993 961l-10 -676l219 -105l6 637l-149 129l295 154l168 -139l-11 -725l-477 -279l-303 131l-225 -131l-371 162l17 698l-197 129l338 154l172 -139l-16 -672l225 -109l6 637l-145 129l290 154z" />
    <glyph glyph-name="x" unicode="x" horiz-adv-x="843" 
d="M94 584h146l2 231l-258 117l311 168l242 -158l139 162l242 -111l-148 -254l-235 105l-5 -260h234l-117 -183h-119v-149l201 -111l-283 -180l-116 82l-213 -270l-74 43l195 346l2 239h-252z" />
    <glyph glyph-name="y" unicode="y" 
d="M983 332l64 -451l-502 -299l-453 287l266 160l-225 129l23 659l-205 107l344 176l168 -150q-1 -42 -3 -110t-6 -212t-6.5 -239.5t-1.5 -95.5l230 -80l10 604l-158 107l297 176l168 -150zM672 121l-217 -125l280 -191z" />
    <glyph glyph-name="z" unicode="z" horiz-adv-x="704" 
d="M356 178l-329 189v92l366 315l-418 74l238 256l438 -100v-193l-340 -274l361 -187l-4 -506l-500 -288l-70 79l256 220z" />
    <glyph glyph-name="braceleft" unicode="{" horiz-adv-x="677" 
d="M412 674q-32 -32 -71 -46t-108 -24q148 -7 201 -100q9 -16 15.5 -34t10.5 -42.5t6.5 -40.5t3.5 -49.5t1 -46.5v-54.5v-52.5v-233q0 -35 1 -52t8.5 -40t23.5 -41q33 -43 92 -43h68v-162h-209q-59 0 -101.5 24.5t-87.5 79.5q-40 51 -55.5 111.5t-15.5 144.5v389
q0 70 -37 107q-36 33 -88 33h-60v184h60q55 0 88 33q37 37 37 106v371q0 87 14.5 146.5t56.5 111.5q44 54 86.5 78t102.5 24h209v-159h-68q-21 0 -48 -11.5t-44 -33.5q-16 -19 -23.5 -42t-8.5 -39.5t-1 -51.5v-183q0 -168 -10 -244.5t-49 -117.5z" />
    <glyph glyph-name="bar" unicode="|" horiz-adv-x="458" 
d="M315 1556v-1943h-180v1943h180z" />
    <glyph glyph-name="braceright" unicode="}" horiz-adv-x="677" 
d="M446 604q-70 10 -108.5 23.5t-71.5 46.5q-39 41 -49 117.5t-10 244.5v183q0 35 -1 51.5t-8 39.5t-22 42q-18 22 -45.5 33.5t-48.5 11.5h-68v159h211q58 0 100.5 -24t86.5 -78q42 -52 56.5 -111.5t14.5 -146.5v-371q0 -69 37 -106q33 -33 90 -33h58v-184h-58
q-54 0 -90 -33q-37 -37 -37 -107v-389q0 -86 -15 -145.5t-56 -110.5q-45 -55 -87 -79.5t-100 -24.5h-211v162h68q59 0 94 43q15 18 22 41t8 40t1 52v233v52.5v54.5t1 46.5t3.5 49.5t6.5 40.5t10.5 42.5t15.5 34q53 93 202 100z" />
    <glyph glyph-name="asciitilde" unicode="~" horiz-adv-x="737" 
d="M29 1323l194 211l305 -135l119 123l70 -88l-185 -232l-311 141l-119 -116z" />
    <glyph glyph-name="exclamdown" unicode="&#xa1;" horiz-adv-x="575" 
d="M365 602l98 -973l-324 -90l105 1030zM459 915q0 -64 -46.5 -110.5t-109.5 -46.5q-62 0 -107.5 46.5t-45.5 110.5q0 60 46 107t107 47q63 0 109.5 -46.5t46.5 -107.5z" />
    <glyph glyph-name="cent" unicode="&#xa2;" horiz-adv-x="778" 
d="M336 -221v198l-258 134l2 733q22 13 57 33t110 63.5t125 72t50 27.5v228h139v-158l287 -152l-213 -178l-238 121v-608l361 -168l-283 -133v-213h-139z" />
    <glyph glyph-name="sterling" unicode="&#xa3;" horiz-adv-x="1044" 
d="M184 225l-10 441h-194v151h186l-10 354l471 324l432 -33l-252 -225l-299 25l12 -445h354v-151h-354l12 -447l488 -63l-318 -203l-731 104z" />
    <glyph glyph-name="yen" unicode="&#xa5;" horiz-adv-x="1347" 
d="M864 180l-315 -143l340 -174zM39 700h127l4 146h-131v143h133l4 170l-219 152l326 219l252 -184l-9 -357h342l2 168l-219 154l328 217l248 -182l-4 -357h125v-143h-127l-2 -146h129v-143h-129l-2 -158l24 -436l-561 -362l-551 288l307 185l-280 139l8 344h-125v143z
M858 279l4 278h-346l-2 -137zM522 846l-2 -146h344l2 146h-344z" />
    <glyph glyph-name="section" unicode="&#xa7;" horiz-adv-x="913" 
d="M373 436l205 -86l2 387l-205 82zM477 -133l4 225l-401 160l4 455l215 141l-121 49l2 340l410 264l321 -153l-178 -162l-260 119l-2 -224l393 -166l-2 -479l-209 -119l113 -47l-2 -370l-422 -236l-319 160l210 172z" />
    <glyph glyph-name="dieresis" unicode="&#xa8;" horiz-adv-x="544" 
d="M393 1487l-297 -303l-84 76l289 321zM692 1487l-297 -303l-84 76l291 321z" />
    <glyph glyph-name="copyright" unicode="&#xa9;" horiz-adv-x="1853" 
d="M74 561q0 173 67.5 330.5t182 272t272 182t330.5 67.5t330.5 -67.5t272 -182t182 -272t67.5 -330.5t-67.5 -330.5t-182 -271t-272 -181t-330.5 -67.5t-330.5 67.5t-272 181t-182 271t-67.5 330.5zM926 1272q-144 0 -275.5 -56.5t-227 -152t-152 -227t-56.5 -275.5
t56.5 -275t152 -226t227 -151t275.5 -56t275.5 56t226.5 151t151.5 226t56.5 275t-56.5 275.5t-151.5 227t-226.5 152t-275.5 56.5zM1364 1028l-240 -199l-327 72l-11 -539l506 -157l-346 -172l-493 184l10 621l508 268z" />
    <glyph glyph-name="ordfeminine" unicode="&#xaa;" horiz-adv-x="651" 
d="M162 1133l-111 221l314 141l204 -166l-10 -330l135 -106l-227 -96l-100 110l-162 -104l-156 135v154zM367 956l6 156l-148 -47zM209 1356l8 -209l156 47v51z" />
    <glyph glyph-name="guillemotleft" unicode="&#xab;" horiz-adv-x="987" 
d="M412 88l-371 487l371 488l133 -105l-242 -378l242 -387zM805 88l-371 487l371 488l133 -105l-242 -378l242 -387z" />
    <glyph glyph-name="registered" unicode="&#xae;" horiz-adv-x="1853" 
d="M74 561q0 173 67.5 330.5t182 272t272 182t330.5 67.5t330.5 -67.5t272 -182t182 -272t67.5 -330.5t-67.5 -330.5t-182 -271t-272 -181t-330.5 -67.5t-330.5 67.5t-272 181t-182 271t-67.5 330.5zM969 655l78 -22l4 186l-205 41l-8 -268zM926 1272q-144 0 -275.5 -56.5
t-227 -152t-152 -227t-56.5 -275.5t56.5 -275t152 -226t227 -151t275.5 -56t275.5 56t226.5 151t151.5 226t56.5 275t-56.5 275.5t-151.5 227t-226.5 152t-275.5 56.5zM1513 209l-296 -148l-254 400l-134 28l-2 -196l191 -84l-330 -160l-182 107l12 639l-178 112l281 164
l215 -135l260 129l290 -90l-8 -242l-164 -102z" />
    <glyph glyph-name="macron" unicode="&#xaf;" horiz-adv-x="604" 
d="M33 1421h536v-180h-536v180z" />
    <glyph glyph-name="degree" unicode="&#xb0;" horiz-adv-x="442" 
d="M0 1360q0 92 64.5 156.5t156.5 64.5t156.5 -64.5t64.5 -156.5q0 -89 -66 -154t-155 -65t-155 65t-66 154zM221 1473q-45 0 -76.5 -33.5t-31.5 -79.5t31 -77.5t77 -31.5t79.5 32t33.5 77q0 46 -33.5 79.5t-79.5 33.5z" />
    <glyph glyph-name="acute" unicode="&#xb4;" horiz-adv-x="393" 
d="M520 1507l-416 -319l-77 86l383 352z" />
    <glyph glyph-name="paragraph" unicode="&#xb6;" horiz-adv-x="1265" 
d="M471 1509l408 -147l247 137l-22 -385l-8 -784l2 -606l-324 -162l19 1648l-121 41l-10 -1515l-158 -19l8 750l-160 -98l-246 163l7 734z" />
    <glyph glyph-name="periodcentered" unicode="&#xb7;" horiz-adv-x="524" 
d="M76 580q0 79 57 135.5t135 56.5q76 0 132.5 -56.5t56.5 -135.5q0 -75 -57 -133t-132 -58q-77 0 -134.5 57.5t-57.5 133.5z" />
    <glyph glyph-name="cedilla" unicode="&#xb8;" horiz-adv-x="491" 
d="M66 -188l112 131l244 -105l-8 -184l-224 -121l-65 92l139 103z" />
    <glyph glyph-name="ordmasculine" unicode="&#xba;" horiz-adv-x="643" 
d="M598 977l-324 -186l-223 163l2 332l326 207l223 -170zM246 1036l151 -92l6 295l-155 90z" />
    <glyph glyph-name="guillemotright" unicode="&#xbb;" horiz-adv-x="987" 
d="M956 575l-370 -487l-131 105l239 387l-239 378l131 105zM563 575l-370 -487l-132 105l240 387l-240 378l132 105z" />
    <glyph glyph-name="questiondown" unicode="&#xbf;" horiz-adv-x="630" 
d="M268 383l-141 168l80 90l364 -266l-241 -537l192 -162l-112 -120l-404 249zM485 915q0 -64 -46 -110.5t-109 -46.5q-62 0 -108 46.5t-46 110.5q0 60 46.5 107t107.5 47q62 0 108.5 -46.5t46.5 -107.5z" />
    <glyph glyph-name="Agrave" unicode="&#xc0;" horiz-adv-x="1267" 
d="M201 1333l321 197l613 -191l-17 -1073l221 -110l-333 -209l-246 149l6 451h-375l-172 -291l307 -84l-276 -231l-328 155l725 1125zM786 1174l-305 -469h293zM954 1552l-415 318l100 129l389 -357z" />
    <glyph glyph-name="Aacute" unicode="&#xc1;" horiz-adv-x="1267" 
d="M201 1333l321 197l613 -191l-17 -1073l221 -110l-333 -209l-246 149l6 451h-375l-172 -291l307 -84l-276 -231l-328 155l725 1125zM786 1174l-305 -469h293zM1210 1896l-415 -319l-78 86l383 352z" />
    <glyph glyph-name="Acircumflex" unicode="&#xc2;" horiz-adv-x="1267" 
d="M201 1333l321 197l613 -191l-17 -1073l221 -110l-333 -209l-246 149l6 451h-375l-172 -291l307 -84l-276 -231l-328 155l725 1125zM786 1174l-305 -469h293zM543 1649l327 379l304 -377l-82 -64l-230 215l-246 -205z" />
    <glyph glyph-name="Atilde" unicode="&#xc3;" horiz-adv-x="1267" 
d="M201 1333l321 197l613 -191l-17 -1073l221 -110l-333 -209l-246 149l6 451h-375l-172 -291l307 -84l-276 -231l-328 155l725 1125zM786 1174l-305 -469h293zM522 1702l195 211l305 -135l119 123l69 -89l-184 -231l-311 141l-119 -116z" />
    <glyph glyph-name="Adieresis" unicode="&#xc4;" horiz-adv-x="1267" 
d="M201 1333l321 197l613 -191l-17 -1073l221 -110l-333 -209l-246 149l6 451h-375l-172 -291l307 -84l-276 -231l-328 155l725 1125zM786 1174l-305 -469h293zM997 1886l-297 -303l-84 76l289 321zM1296 1886l-297 -303l-84 76l291 321z" />
    <glyph glyph-name="Aring" unicode="&#xc5;" horiz-adv-x="1267" 
d="M201 1333l321 197l613 -191l-17 -1073l221 -110l-333 -209l-246 149l6 451h-375l-172 -291l307 -84l-276 -231l-328 155l725 1125zM786 1174l-305 -469h293zM739 1780q0 92 65 156.5t157 64.5t156.5 -64.5t64.5 -156.5q0 -89 -66 -154t-155 -65q-90 0 -156 65t-66 154z
M961 1892q-45 0 -77 -33t-32 -79t31.5 -77.5t77.5 -31.5t79 32t33 77q0 46 -33 79t-79 33z" />
    <glyph glyph-name="AE" unicode="&#xc6;" horiz-adv-x="1646" 
d="M786 1174l-305 -469h293zM1286 -47l-528 104l8 490h-375l-172 -291l307 -84l-276 -231l-328 155l752 1155l-447 113l322 197l362 -84l813 -2l-258 -267l-325 17l-6 -346h403l-129 -240h-289l-4 -346l533 -96z" />
    <glyph glyph-name="Ccedilla" unicode="&#xc7;" horiz-adv-x="1048" 
d="M451 -209l112 131l244 -104l-8 -185l-224 -120l-65 92l139 102zM1143 1421l-238 -270l-416 117l-12 -901l582 -215l-402 -226l-548 230l12 1030l520 356z" />
    <glyph glyph-name="Egrave" unicode="&#xc8;" horiz-adv-x="1128" 
d="M180 55l27 1200l-303 15l299 241l938 -36l-258 -267l-326 17l-6 -346h403l-129 -240h-288l-5 -346l533 -96l-363 -244zM741 1552l-415 318l100 129l389 -357z" />
    <glyph glyph-name="Eacute" unicode="&#xc9;" horiz-adv-x="1128" 
d="M180 55l27 1200l-303 15l299 241l938 -36l-258 -267l-326 17l-6 -346h403l-129 -240h-288l-5 -346l533 -96l-363 -244zM948 1896l-416 -319l-77 86l383 352z" />
    <glyph glyph-name="Ecircumflex" unicode="&#xca;" horiz-adv-x="1128" 
d="M180 55l27 1200l-303 15l299 241l938 -36l-258 -267l-326 17l-6 -346h403l-129 -240h-288l-5 -346l533 -96l-363 -244zM330 1649l327 379l304 -377l-82 -64l-230 215l-246 -205z" />
    <glyph glyph-name="Edieresis" unicode="&#xcb;" horiz-adv-x="1128" 
d="M180 55l27 1200l-303 15l299 241l938 -36l-258 -267l-326 17l-6 -346h403l-129 -240h-288l-5 -346l533 -96l-363 -244zM727 1886l-297 -303l-84 76l289 321zM1026 1886l-297 -303l-84 76l291 321z" />
    <glyph glyph-name="Igrave" unicode="&#xcc;" horiz-adv-x="892" 
d="M532 1346l-18 -1049l248 -113l-375 -235l-231 151l20 1057l-219 154l326 217zM434 1552l-416 318l101 129l389 -357z" />
    <glyph glyph-name="Iacute" unicode="&#xcd;" horiz-adv-x="892" 
d="M532 1346l-18 -1049l248 -113l-375 -235l-231 151l20 1057l-219 154l326 217zM696 1896l-415 -319l-78 86l383 352z" />
    <glyph glyph-name="Icircumflex" unicode="&#xce;" horiz-adv-x="892" 
d="M532 1346l-18 -1049l248 -113l-375 -235l-231 151l20 1057l-219 154l326 217zM8 1649l328 379l303 -377l-82 -64l-229 215l-246 -205z" />
    <glyph glyph-name="Idieresis" unicode="&#xcf;" horiz-adv-x="892" 
d="M532 1346l-18 -1049l248 -113l-375 -235l-231 151l20 1057l-219 154l326 217zM408 1886l-297 -303l-84 76l288 321zM707 1886l-297 -303l-84 76l290 321z" />
    <glyph glyph-name="Eth" unicode="&#xd0;" horiz-adv-x="1357" 
d="M522 1184l43 -383h236v-154h-223l28 -270l-123 -90l447 -101l14 881zM270 272l-43 375h-178v154h162l-35 266l258 139l-446 129l352 244l975 -287l-15 -1040l-657 -315l-553 190z" />
    <glyph glyph-name="Ntilde" unicode="&#xd1;" horiz-adv-x="1294" 
d="M860 1096l-358 139l-19 -959l226 -106l-347 -209l-233 150l16 1052l-204 150l305 209l258 -189l274 168l453 -192l-27 -1033l201 -94l-322 -221l-249 150zM340 1702l195 211l305 -135l118 123l70 -89l-184 -231l-312 141l-118 -116z" />
    <glyph glyph-name="Ograve" unicode="&#xd2;" horiz-adv-x="1486" 
d="M1337 246l-657 -326l-555 227l4 986l647 397l572 -256zM512 344l434 -168l10 903l-428 174zM874 1552l-415 318l100 129l389 -357z" />
    <glyph glyph-name="Oacute" unicode="&#xd3;" horiz-adv-x="1486" 
d="M1337 246l-657 -326l-555 227l4 986l647 397l572 -256zM512 344l434 -168l10 903l-428 174zM1069 1896l-416 -319l-78 86l383 352z" />
    <glyph glyph-name="Ocircumflex" unicode="&#xd4;" horiz-adv-x="1486" 
d="M1337 246l-657 -326l-555 227l4 986l647 397l572 -256zM512 344l434 -168l10 903l-428 174zM467 1649l328 379l303 -377l-82 -64l-230 215l-245 -205z" />
    <glyph glyph-name="Otilde" unicode="&#xd5;" horiz-adv-x="1486" 
d="M1337 246l-657 -326l-555 227l4 986l647 397l572 -256zM512 344l434 -168l10 903l-428 174zM434 1702l195 211l305 -135l119 123l69 -89l-184 -231l-311 141l-119 -116z" />
    <glyph glyph-name="Odieresis" unicode="&#xd6;" horiz-adv-x="1486" 
d="M1337 246l-657 -326l-555 227l4 986l647 397l572 -256zM512 344l434 -168l10 903l-428 174zM887 1886l-297 -303l-84 76l289 321zM1186 1886l-297 -303l-84 76l291 321z" />
    <glyph glyph-name="Oslash" unicode="&#xd8;" horiz-adv-x="1486" 
d="M946 176l8 785l-372 -644zM528 1253l-14 -766l358 625zM1298 1552l-118 -202l168 -76l-11 -1028l-657 -326l-264 109l-164 -281l-125 64l156 270l-158 65l4 986l647 397l266 -119l121 209z" />
    <glyph glyph-name="Ugrave" unicode="&#xd9;" horiz-adv-x="1394" 
d="M856 100l-315 -155l-385 172l20 1040l-217 154l326 217l250 -182l-21 -1029l344 -141l12 981l-219 154l328 217l248 -182l-10 -1049l241 -133l-371 -215zM770 1552l-416 318l101 129l389 -357z" />
    <glyph glyph-name="Uacute" unicode="&#xda;" horiz-adv-x="1394" 
d="M856 100l-315 -155l-385 172l20 1040l-217 154l326 217l250 -182l-21 -1029l344 -141l12 981l-219 154l328 217l248 -182l-10 -1049l241 -133l-371 -215zM1030 1896l-416 -319l-77 86l383 352z" />
    <glyph glyph-name="Ucircumflex" unicode="&#xdb;" horiz-adv-x="1394" 
d="M856 100l-315 -155l-385 172l20 1040l-217 154l326 217l250 -182l-21 -1029l344 -141l12 981l-219 154l328 217l248 -182l-10 -1049l241 -133l-371 -215zM379 1649l328 379l303 -377l-82 -64l-230 215l-245 -205z" />
    <glyph glyph-name="Udieresis" unicode="&#xdc;" horiz-adv-x="1394" 
d="M856 100l-315 -155l-385 172l20 1040l-217 154l326 217l250 -182l-21 -1029l344 -141l12 981l-219 154l328 217l248 -182l-10 -1049l241 -133l-371 -215zM776 1886l-297 -303l-84 76l289 321zM1075 1886l-297 -303l-84 76l291 321z" />
    <glyph glyph-name="Yacute" unicode="&#xdd;" horiz-adv-x="1347" 
d="M864 180l-315 -143l340 -174zM436 74l-280 139l20 946l-219 152l326 219l252 -184l-21 -926l344 -141l12 878l-219 154l328 217l248 -182l-10 -947l24 -436l-561 -362l-551 288zM997 1896l-415 -319l-78 86l383 352z" />
    <glyph glyph-name="Thorn" unicode="&#xde;" horiz-adv-x="1292" 
d="M836 55l-340 70l-2 -416l-367 -141l8 612l-221 47l227 172l11 797l-246 158l344 174l264 -180l-4 -238l264 135l457 -143l-14 -807zM502 338l356 -78l6 666l-356 92z" />
    <glyph glyph-name="germandbls" unicode="&#xdf;" horiz-adv-x="1124" 
d="M745 178l-296 170v-63l-13 -539l-325 -178l24 563l17 676h-211l206 205l7 272l440 285l293 -127l-187 -215l-243 121l-2 -404l147 160l438 -100v-193l-340 -274l361 -187l-4 -506l-500 -288l-76 86l262 213zM788 774l-335 62l-2 -349z" />
    <glyph glyph-name="agrave" unicode="&#xe0;" horiz-adv-x="1003" 
d="M563 221l4 195l-223 -80zM246 449l-170 434l481 235l324 -155l-21 -670l209 -176l-352 -160l-152 182l-252 -174l-241 164v256zM322 887l8 -414l237 80l6 260zM655 1184l-415 317l100 129l389 -356z" />
    <glyph glyph-name="aacute" unicode="&#xe1;" horiz-adv-x="1003" 
d="M563 221l4 195l-223 -80zM246 449l-170 434l481 235l324 -155l-21 -670l209 -176l-352 -160l-152 182l-252 -174l-241 164v256zM322 887l8 -414l237 80l6 260zM793 1507l-416 -319l-78 86l383 352z" />
    <glyph glyph-name="acircumflex" unicode="&#xe2;" horiz-adv-x="1003" 
d="M563 221l4 195l-223 -80zM246 449l-170 434l481 235l324 -155l-21 -670l209 -176l-352 -160l-152 182l-252 -174l-241 164v256zM322 887l8 -414l237 80l6 260zM201 1249l327 379l303 -377l-81 -63l-230 215l-246 -205z" />
    <glyph glyph-name="atilde" unicode="&#xe3;" horiz-adv-x="1003" 
d="M563 221l4 195l-223 -80zM246 449l-170 434l481 235l324 -155l-21 -670l209 -176l-352 -160l-152 182l-252 -174l-241 164v256zM322 887l8 -414l237 80l6 260zM152 1323l194 211l305 -135l119 123l70 -88l-185 -232l-311 141l-119 -116z" />
    <glyph glyph-name="adieresis" unicode="&#xe4;" horiz-adv-x="1003" 
d="M563 221l4 195l-223 -80zM246 449l-170 434l481 235l324 -155l-21 -670l209 -176l-352 -160l-152 182l-252 -174l-241 164v256zM322 887l8 -414l237 80l6 260zM608 1487l-297 -303l-84 76l289 321zM907 1487l-297 -303l-84 76l291 321z" />
    <glyph glyph-name="aring" unicode="&#xe5;" horiz-adv-x="1003" 
d="M563 221l4 195l-223 -80zM246 449l-170 434l481 235l324 -155l-21 -670l209 -176l-352 -160l-152 182l-252 -174l-241 164v256zM322 887l8 -414l237 80l6 260zM319 1360q0 92 65 156.5t157 64.5t156.5 -64.5t64.5 -156.5q0 -89 -66 -154t-155 -65q-90 0 -156 65t-66 154z
M541 1473q-45 0 -77 -33.5t-32 -79.5t31.5 -77.5t77.5 -31.5t79 32t33 77q0 46 -33 79.5t-79 33.5z" />
    <glyph glyph-name="ae" unicode="&#xe6;" horiz-adv-x="1380" 
d="M879 907l-2 -237l194 86zM322 887l8 -414l237 80l6 260zM563 221l4 195l-223 -80zM922 -53l-320 200l-289 -182l-241 164v256l174 64l-170 434l481 235l250 -151l246 139l286 -234l-4 -215l-461 -122l-4 -207l465 -199z" />
    <glyph glyph-name="ccedilla" unicode="&#xe7;" horiz-adv-x="778" 
d="M229 -188l113 131l244 -105l-8 -184l-224 -121l-65 92l139 103zM848 958l-213 -178l-238 121v-608l361 -168l-371 -174l-309 160l2 733l471 272z" />
    <glyph glyph-name="egrave" unicode="&#xe8;" horiz-adv-x="901" 
d="M100 852l480 254l286 -234l-4 -215l-461 -122l-4 -207l465 -199l-413 -182l-371 198zM406 907l-3 -237l195 86zM627 1184l-416 317l100 129l389 -356z" />
    <glyph glyph-name="eacute" unicode="&#xe9;" horiz-adv-x="901" 
d="M100 852l480 254l286 -234l-4 -215l-461 -122l-4 -207l465 -199l-413 -182l-371 198zM406 907l-3 -237l195 86zM809 1507l-416 -319l-78 86l383 352z" />
    <glyph glyph-name="ecircumflex" unicode="&#xea;" horiz-adv-x="901" 
d="M100 852l480 254l286 -234l-4 -215l-461 -122l-4 -207l465 -199l-413 -182l-371 198zM406 907l-3 -237l195 86zM186 1249l328 379l303 -377l-82 -63l-229 215l-246 -205z" />
    <glyph glyph-name="edieresis" unicode="&#xeb;" horiz-adv-x="901" 
d="M100 852l480 254l286 -234l-4 -215l-461 -122l-4 -207l465 -199l-413 -182l-371 198zM406 907l-3 -237l195 86zM608 1487l-297 -303l-84 76l289 321zM907 1487l-297 -303l-84 76l291 321z" />
    <glyph glyph-name="igrave" unicode="&#xec;" horiz-adv-x="544" 
d="M147 821l-190 107l319 172l185 -150l-17 -700l189 -105l-332 -180l-170 131zM377 1184l-416 317l100 129l390 -356z" />
    <glyph glyph-name="iacute" unicode="&#xed;" horiz-adv-x="544" 
d="M147 821l-190 107l319 172l185 -150l-17 -700l189 -105l-332 -180l-170 131zM623 1507l-416 -319l-78 86l383 352z" />
    <glyph glyph-name="icircumflex" unicode="&#xee;" horiz-adv-x="544" 
d="M147 821l-190 107l319 172l185 -150l-17 -700l189 -105l-332 -180l-170 131zM-16 1249l327 379l303 -377l-82 -63l-229 215l-246 -205z" />
    <glyph glyph-name="idieresis" unicode="&#xef;" horiz-adv-x="544" 
d="M147 821l-190 107l319 172l185 -150l-17 -700l189 -105l-332 -180l-170 131zM414 1487l-297 -303l-84 76l289 321zM713 1487l-297 -303l-84 76l291 321z" />
    <glyph glyph-name="eth" unicode="&#xf0;" horiz-adv-x="972" 
d="M365 279l233 -115l6 569l-225 170zM315 958l-110 89l-182 -132l-101 123l154 111l-176 141l274 174l158 -131l213 154l102 -123q-186 -135 -188 -135l448 -367v-680l-497 -235l-344 192l10 666z" />
    <glyph glyph-name="ntilde" unicode="&#xf1;" 
d="M676 745l-223 95l-4 -594l149 -117l-297 -164l-166 127l4 692l-188 144l319 172l187 -160l288 160l244 -156l-12 -698l184 -101l-330 -180l-167 127zM203 1323l194 211l305 -135l119 123l70 -88l-184 -232l-312 141l-119 -116z" />
    <glyph glyph-name="ograve" unicode="&#xf2;" horiz-adv-x="989" 
d="M373 252l233 -82l6 653l-233 62zM913 225l-495 -278l-344 168l6 698l502 303l336 -153zM672 1184l-416 317l100 129l389 -356z" />
    <glyph glyph-name="oacute" unicode="&#xf3;" horiz-adv-x="989" 
d="M373 252l233 -82l6 653l-233 62zM913 225l-495 -278l-344 168l6 698l502 303l336 -153zM858 1507l-416 -319l-77 86l383 352z" />
    <glyph glyph-name="ocircumflex" unicode="&#xf4;" horiz-adv-x="989" 
d="M373 252l233 -82l6 653l-233 62zM913 225l-495 -278l-344 168l6 698l502 303l336 -153zM223 1249l328 379l303 -377l-82 -63l-229 215l-246 -205z" />
    <glyph glyph-name="otilde" unicode="&#xf5;" horiz-adv-x="989" 
d="M373 252l233 -82l6 653l-233 62zM913 225l-495 -278l-344 168l6 698l502 303l336 -153zM176 1323l195 211l305 -135l119 123l69 -88l-184 -232l-311 141l-119 -116z" />
    <glyph glyph-name="odieresis" unicode="&#xf6;" horiz-adv-x="989" 
d="M373 252l233 -82l6 653l-233 62zM913 225l-495 -278l-344 168l6 698l502 303l336 -153zM676 1487l-297 -303l-84 76l289 321zM975 1487l-297 -303l-84 76l291 321z" />
    <glyph glyph-name="oslash" unicode="&#xf8;" horiz-adv-x="989" 
d="M606 170l4 446l-190 -380zM379 885l-4 -494l215 438zM899 1190l-90 -178l109 -49l-5 -738l-495 -278l-115 55q0 1 -21 -40l-42 -82l-21 -42l-98 35l86 176q1 0 -32.5 16.5t-66.5 32.5l-34 17l6 698l502 303l120 -55l89 180z" />
    <glyph glyph-name="ugrave" unicode="&#xf9;" 
d="M449 295l225 -86l6 627l-154 102l299 162l168 -137l-6 -697l176 -121l-282 -178l-211 142l-277 -142l-258 160l17 709l-199 102l340 162l172 -137zM631 1184l-416 317l100 129l390 -356z" />
    <glyph glyph-name="uacute" unicode="&#xfa;" 
d="M449 295l225 -86l6 627l-154 102l299 162l168 -137l-6 -697l176 -121l-282 -178l-211 142l-277 -142l-258 160l17 709l-199 102l340 162l172 -137zM895 1507l-416 -319l-78 86l383 352z" />
    <glyph glyph-name="ucircumflex" unicode="&#xfb;" 
d="M449 295l225 -86l6 627l-154 102l299 162l168 -137l-6 -697l176 -121l-282 -178l-211 142l-277 -142l-258 160l17 709l-199 102l340 162l172 -137zM246 1249l327 379l304 -377l-82 -63l-230 215l-246 -205z" />
    <glyph glyph-name="udieresis" unicode="&#xfc;" 
d="M449 295l225 -86l6 627l-154 102l299 162l168 -137l-6 -697l176 -121l-282 -178l-211 142l-277 -142l-258 160l17 709l-199 102l340 162l172 -137zM657 1487l-297 -303l-84 76l289 321zM956 1487l-297 -303l-84 76l291 321z" />
    <glyph glyph-name="yacute" unicode="&#xfd;" 
d="M983 332l64 -451l-502 -299l-453 287l266 160l-225 129l23 659l-205 107l344 176l168 -150q-1 -42 -3 -110t-6 -212t-6.5 -239.5t-1.5 -95.5l230 -80l10 604l-158 107l297 176l168 -150zM672 121l-217 -125l280 -191zM877 1507l-416 -319l-78 86l383 352z" />
    <glyph glyph-name="thorn" unicode="&#xfe;" horiz-adv-x="993" 
d="M381 303l225 -92l8 563l-225 82zM59 -274l19 1515l-43 342l43 21l106 -209l213 127l-6 -566l293 144l244 -164l-13 -690l-446 -236l-100 39l-2 -199l184 -129l-348 -149z" />
    <glyph glyph-name="ydieresis" unicode="&#xff;" 
d="M983 332l64 -451l-502 -299l-453 287l266 160l-225 129l23 659l-205 107l344 176l168 -150q-1 -42 -3 -110t-6 -212t-6.5 -239.5t-1.5 -95.5l230 -80l10 604l-158 107l297 176l168 -150zM672 121l-217 -125l280 -191zM664 1487l-297 -303l-84 76l288 321zM963 1487
l-297 -303l-84 76l290 321z" />
    <glyph glyph-name="dotlessi" unicode="&#x131;" horiz-adv-x="544" 
d="M147 821l-190 107l319 172l185 -150l-17 -700l189 -105l-332 -180l-170 131z" />
    <glyph glyph-name="Lslash" unicode="&#x141;" horiz-adv-x="958" 
d="M545 1346l-8 -302l100 74l104 -129l-211 -153l-16 -545l539 -60l-254 -290l-643 102l16 532l-84 -59l-104 129q12 9 32 23.5t62.5 45.5t71 51t28.5 19l10 373l-217 154l326 217z" />
    <glyph glyph-name="lslash" unicode="&#x142;" horiz-adv-x="634" 
d="M471 1225v-170l123 88l104 -129l-227 -164v-590l195 -129l-320 -170l-188 141l2 523l-115 -84l-104 129l221 159l2 398l-55 350l43 18l114 -190l217 123z" />
    <glyph glyph-name="OE" unicode="&#x152;" horiz-adv-x="1847" 
d="M512 344l434 -168l10 903l-428 174zM1657 1208l-309 17l-5 -346h386l-130 -240h-258l-4 -352l502 -90l-362 -244l-506 110l-291 -143l-555 227l4 986l647 397l318 -144l186 115l635 -26z" />
    <glyph glyph-name="oe" unicode="&#x153;" horiz-adv-x="1419" 
d="M918 907l-3 -237l195 86zM373 252l233 -82l6 653l-233 62zM961 -53l-265 157l-278 -157l-344 168l6 698l502 303q272 -145 272 -147l238 137l286 -234l-4 -215l-461 -122l-4 -207l465 -199z" />
    <glyph glyph-name="Scaron" unicode="&#x160;" horiz-adv-x="1044" 
d="M635 528l-553 234l4 381l514 393l416 -113l-228 -266l-352 109l-4 -250l549 -232l-2 -473l-537 -342l-444 131l281 240l352 -117zM934 1917l-328 -379l-303 377l82 63l229 -215l246 205z" />
    <glyph glyph-name="scaron" unicode="&#x161;" horiz-adv-x="823" 
d="M471 375l-379 125l2 360l410 264l321 -153l-178 -162l-260 119l-2 -223l375 -125l-4 -377l-424 -238l-320 160l211 172l244 -129zM786 1518l-327 -379l-303 377l82 63l229 -215l246 205z" />
    <glyph glyph-name="Ydieresis" unicode="&#x178;" horiz-adv-x="1347" 
d="M864 180l-315 -143l340 -174zM436 74l-280 139l20 946l-219 152l326 219l252 -184l-21 -926l344 -141l12 878l-219 154l328 217l248 -182l-10 -947l24 -436l-561 -362l-551 288zM733 1886l-297 -303l-84 76l289 321zM1032 1886l-297 -303l-84 76l291 321z" />
    <glyph glyph-name="Zcaron" unicode="&#x17d;" horiz-adv-x="989" 
d="M528 440l-419 234v121l436 362l-606 121l262 264l657 -125l-2 -196l-430 -351l459 -252l-6 -655l-547 -342l-447 172l271 227l368 -153zM829 1929l-327 -379l-303 377l82 64l229 -215l246 204z" />
    <glyph glyph-name="zcaron" unicode="&#x17e;" horiz-adv-x="704" 
d="M356 178l-329 189v92l366 315l-418 74l238 256l438 -100v-193l-340 -274l361 -187l-4 -506l-500 -288l-70 79l256 220zM651 1518l-327 -379l-304 377l82 63l230 -215l246 205z" />
    <glyph glyph-name="florin" unicode="&#x192;" horiz-adv-x="665" 
d="M457 1348l-6 -322h323l-131 -238h-188l-6 -503l-13 -539l-325 -178l24 563l17 655h-211l206 242l7 256l440 285l293 -127l-187 -215z" />
    <glyph glyph-name="circumflex" unicode="&#x2c6;" horiz-adv-x="743" 
d="M57 1249l328 379l303 -377l-82 -63l-229 215l-246 -205z" />
    <glyph glyph-name="caron" unicode="&#x2c7;" horiz-adv-x="593" 
d="M614 1518l-327 -379l-303 377l82 63l229 -215l246 205z" />
    <glyph glyph-name="breve" unicode="&#x2d8;" horiz-adv-x="593" 
d="M614 1511q-50 -178 -131 -252.5t-196 -74.5q-234 0 -305 325l100 62q55 -199 213 -199q151 0 219 205z" />
    <glyph glyph-name="dotaccent" unicode="&#x2d9;" horiz-adv-x="524" 
d="M129 1354q0 58 40.5 97.5t98.5 39.5q55 0 95 -39.5t40 -97.5q0 -54 -40.5 -95.5t-94.5 -41.5q-56 0 -97.5 41.5t-41.5 95.5z" />
    <glyph glyph-name="ring" unicode="&#x2da;" horiz-adv-x="442" 
d="M0 1360q0 92 64.5 156.5t156.5 64.5t156.5 -64.5t64.5 -156.5q0 -89 -66 -154t-155 -65t-155 65t-66 154zM221 1473q-45 0 -76.5 -33.5t-31.5 -79.5t31 -77.5t77 -31.5t79.5 32t33.5 77q0 46 -33.5 79.5t-79.5 33.5z" />
    <glyph glyph-name="ogonek" unicode="&#x2db;" horiz-adv-x="491" 
d="M250 -10l127 -82l-137 -195l159 -2l-18 -121l-244 -34l-80 153z" />
    <glyph glyph-name="tilde" unicode="&#x2dc;" horiz-adv-x="737" 
d="M29 1323l194 211l305 -135l119 123l70 -88l-185 -232l-311 141l-119 -116z" />
    <glyph glyph-name="hungarumlaut" unicode="&#x2dd;" horiz-adv-x="544" 
d="M467 1528l-375 -346l-82 75l369 365zM766 1528l-375 -346l-82 75l369 365z" />
    <glyph glyph-name="Delta" unicode="&#x394;" horiz-adv-x="733" 
d="M422 1223l-8 -228l164 176zM643 805l-231 10l-6 -559l174 -115l-322 -176l-164 137l8 1139l-49 354l45 19l105 -234l219 142l-4 -205l207 182l190 -176v-129l-297 -186l256 18z" />
    <glyph glyph-name="endash" unicode="&#x2013;" horiz-adv-x="759" 
d="M27 639h704v-180h-704v180z" />
    <glyph glyph-name="emdash" unicode="&#x2014;" horiz-adv-x="1310" 
d="M27 639h1261v-180h-1261v180z" />
    <glyph glyph-name="quoteleft" unicode="&#x2018;" horiz-adv-x="450" 
d="M-59 1040l340 502l79 -41l-182 -581z" />
    <glyph glyph-name="quoteright" unicode="&#x2019;" horiz-adv-x="450" 
d="M440 1389l-340 -502l-80 41l183 581z" />
    <glyph glyph-name="quotesinglbase" unicode="&#x201a;" horiz-adv-x="450" 
d="M440 221l-340 -502l-80 41l183 582z" />
    <glyph glyph-name="quotedblleft" unicode="&#x201c;" horiz-adv-x="716" 
d="M287 1034l305 506l80 -39l-193 -557zM-33 1034l305 506l80 -39l-192 -557z" />
    <glyph glyph-name="quotedblright" unicode="&#x201d;" horiz-adv-x="712" 
d="M381 1399l-305 -506l-80 39l192 557zM700 1399l-305 -506l-80 39l193 557z" />
    <glyph glyph-name="quotedblbase" unicode="&#x201e;" horiz-adv-x="712" 
d="M381 225l-305 -506l-80 39l192 557zM700 225l-305 -506l-80 39l193 557z" />
    <glyph glyph-name="dagger" unicode="&#x2020;" horiz-adv-x="970" 
d="M889 866l-344 62l65 -1282h-266l66 1282l-344 -62v250l344 -61l-66 448h266l-65 -448l344 61v-250z" />
    <glyph glyph-name="daggerdbl" unicode="&#x2021;" horiz-adv-x="970" 
d="M545 969l65 -383l-65 -391l344 61v-250l-344 62l65 -422h-266l66 422l-347 -62v250l347 -61l-66 391l66 383l-344 -62v250l344 -61l-66 407h266l-65 -407l344 61v-250z" />
    <glyph glyph-name="bullet" unicode="&#x2022;" horiz-adv-x="806" 
d="M76 580q0 142 100 241t242 99q136 0 235 -99.5t99 -240.5q0 -135 -99.5 -236.5t-234.5 -101.5q-140 0 -241 101t-101 237z" />
    <glyph glyph-name="ellipsis" unicode="&#x2026;" horiz-adv-x="1572" 
d="M90 152q0 75 52 126.5t126 51.5q71 0 122.5 -52t51.5 -126q0 -71 -52 -124t-122 -53q-73 0 -125.5 53t-52.5 124zM614 152q0 75 52.5 126.5t126.5 51.5q71 0 122.5 -52t51.5 -126q0 -71 -52 -124t-122 -53q-73 0 -126 53t-53 124zM1139 152q0 75 52 126.5t126 51.5
q71 0 122.5 -52t51.5 -126q0 -71 -52 -124t-122 -53q-73 0 -125.5 53t-52.5 124z" />
    <glyph glyph-name="perthousand" unicode="&#x2030;" horiz-adv-x="2224" 
d="M438 29l574 1501l104 -49l-575 -1504zM1853 836q133 0 219.5 -121t86.5 -303q0 -198 -83 -327.5t-216 -129.5q-137 0 -222.5 125.5t-85.5 318.5q0 187 82.5 312t218.5 125zM354 1479q133 0 219 -121t86 -303q0 -198 -83 -327.5t-216 -129.5q-137 0 -222 125.5t-85 318.5
q0 187 82.5 312t218.5 125zM1176 836q133 0 219 -121t86 -303q0 -198 -83 -327.5t-216 -129.5q-137 0 -222.5 125.5t-85.5 318.5q0 186 83 311.5t219 125.5zM475 1038q0 70 -4 120.5t-15.5 102t-36.5 78.5t-63 27q-24 0 -42.5 -10.5t-31 -25.5t-21 -42.5t-13 -51.5t-7 -62
t-3 -64.5t-0.5 -69.5q0 -50 1 -82.5t5 -75t12.5 -69.5t22.5 -52t36 -37.5t52 -12.5q25 0 44 11.5t30.5 36.5t18.5 51t10 68.5t4 75t1 84.5zM1296 395q0 56 -2 96.5t-9 87t-19.5 76t-35.5 49t-54 19.5q-27 0 -47.5 -12t-33 -38t-20.5 -52.5t-11 -69t-4 -74t-1 -80.5
q0 -50 1 -82.5t5 -75t12.5 -69.5t22.5 -52t36 -37.5t52 -12.5t50.5 19t31.5 46t17 74.5t7.5 87t1.5 100.5zM1974 395q0 70 -4 120.5t-15.5 102t-36.5 78.5t-63 27q-24 0 -42.5 -10.5t-31 -25.5t-21 -42.5t-13 -51.5t-7 -62t-3 -64.5t-0.5 -69.5q0 -50 1 -82.5t5 -75
t12.5 -69.5t22.5 -52t36 -37.5t52 -12.5q25 0 44 11.5t30.5 36.5t18.5 51t10 68.5t4 75t1 84.5z" />
    <glyph glyph-name="guilsinglleft" unicode="&#x2039;" horiz-adv-x="593" 
d="M420 88l-404 487l404 488l133 -105l-242 -378l242 -387z" />
    <glyph glyph-name="guilsinglright" unicode="&#x203a;" horiz-adv-x="593" 
d="M596 575l-403 -487l-132 105l240 387l-240 378l132 105z" />
    <glyph glyph-name="fraction" unicode="&#x2044;" horiz-adv-x="720" 
d="M238 -31l458 1567l-172 51l-458 -1567z" />
    <glyph glyph-name="trademark" unicode="&#x2122;" horiz-adv-x="1810" 
d="M776 1307l-131 94l-47 -66l-152 11l-14 -545l156 -80l-234 -141l-151 104l16 668l-252 6l123 170l635 -17l-61 -86l196 101l144 -113l196 113l172 -111l205 111l162 -127l-15 -617l117 -84l-223 -108l-119 100l14 592l-143 70l-14 -570l102 -86l-209 -106l-116 100
l14 592l-146 70l-10 -570l96 -84l-202 -108l-117 100z" />
    <glyph glyph-name="partialdiff" unicode="&#x2202;" horiz-adv-x="591" 
d="M152 807h-211l206 205l7 272l440 285l293 -127l-187 -215l-243 121l-8 -1063l-13 -539l-325 -178l24 563z" />
    <glyph glyph-name="summation" unicode="&#x2211;" horiz-adv-x="1622" 
d="M995 944l-18 -655l225 -109l6 637l-149 129l295 154l168 -139l-11 -725l-477 -279l-370 162l12 626l-223 95l-4 -594l149 -117l-297 -164l-166 127l4 692l-188 144l319 172l187 -160l288 160z" />
    <glyph glyph-name="apple" unicode="&#xf8ff;" horiz-adv-x="1638" 
d="M815 -373q-217 2 -397.5 132.5t-282.5 350t-102 476.5t102 476t282.5 349.5t397.5 132.5q217 -2 396.5 -132.5t281.5 -349.5t102 -476t-102 -476.5t-282 -350t-396 -132.5zM745 449l-456 -330q79 -146 198 -237.5t258 -110.5v1v1v1v1v1v1v1v1v1v1v1v1v1v1v1v1v1v1v1v1v1
v1v1v1v1v1v1v1v1v1v1v1v1v1v1v1v1v1v1v1v1v1v1v1v1v1v1v1v1v1v2v1v1v1v1v1v1v1v1v1v1v1v1v1v1v1v1v1v1v2v1v1v1v1v1v1v1v1v1v2v1v1v1v1v1v1v1v2v1v1v1v1v1v1v2v1v1v1v1v1v2v1v1v1v1v1v2v1v1v1v1v2v1v1v1v1v2v1v1v1v1v2v1v1v1v2v1v1v1v2v1v1v1v2v1v1v1v2v1v1v1v2v1v1v2v1v1v1
v2v1v1v2v1v1v2v1v1v1v2v1v1v2v1v1v2v1v1v2v1v1v2v1v1v2v1v1v2v1v2v1v1v2v1v1v2v1v1v2v1v2v1v1v2v1v2v1v1v2v1v2v1v1v2v1v2v1v2v1v1v2v1v2v1v2v1v1v2v1v2v1v2v1v2v1v1v2v1v2v1v2v1v2v1v2v1v2v1v2v1v2v1v2v1v2v1v2v1v2v1v2v1v2v1v2v1v2v1v2v1v2v1v2v1v2v2v1v2v1v2v1v2v1v2v1v2
v2v1v2v1v2v1v2v2v1v2v1v2v1v2v2v1v2v1v2v2v1v2v1v2v2v1v2v1v2v2v1v2v2v1v2v1v2v2v1v2v2v1v2v2v1v2v1v2v2v1v2v2v1v2v2v1v2v2v1v2v2v1v2v2v2v1v2v2v1v2v2v1v2v2v1v2v2v2v1v2v2v1v2v2v2v1v2v2v1v2v2v2v1v2v2v2v1v2v2v2v1v2v2v2v1v2v2v2v1v2v2v2v2v1v2v2v2v1v2v2v2v2v1v2v2v2v2
v1v2v2v2v2v1v2v2v2v2v2v1v2v2v2v2v2v1v2v2v2v2v2v2v1v2v2v2v2v2v2v1v2v2v2v2v2v2v2v2v1v2v2v2v2v2v2v2v2v2v1v2v2v2v2v2v2v2v2v8zM745 623v778q-115 -15 -220.5 -84.5t-183 -176.5t-123.5 -251.5t-46 -302.5q0 -179 57 -336zM885 621l514 -371q57 157 57 336
q0 158 -46 302.5t-123.5 251.5t-183 176.5t-220.5 84.5zM885 449q0 -678 -2 -678q137 19 257.5 111t200.5 237z" />
    <glyph glyph-name="fi" unicode="&#xfb01;" horiz-adv-x="1134" 
d="M682 819h-225l-13 -563l185 -131l-328 -160l-170 146l19 696h-207l204 207l11 272l434 281l295 -125l-187 -213l-243 114l-8 -321h546l-16 -772l188 -105l-331 -180l-170 131z" />
    <glyph glyph-name="fl" unicode="&#xfb02;" horiz-adv-x="1093" 
d="M670 102l10 717h-223l-13 -563l185 -131l-328 -160l-170 146l19 696h-207l204 207l11 272l434 281l268 -121l146 82l-13 -303l-10 -965l195 -129l-320 -170zM682 1022l4 213l-229 108l-8 -321h233z" />
    </font>
</defs>
</svg>
